<?xml version="1.0" standalone="no"?>
<!DOCTYPE svg PUBLIC "-//W3C//DTD SVG 20010904//EN"
 "http://www.w3.org/TR/2001/REC-SVG-20010904/DTD/svg10.dtd">
<svg version="1.0" xmlns="http://www.w3.org/2000/svg"
 width="700.000000pt" height="700.000000pt" viewBox="0 0 700.000000 700.000000"
 preserveAspectRatio="xMidYMid meet">
<metadata>
Created by potrace 1.11, written by Peter Selinger 2001-2013
</metadata>
<g transform="translate(0.000000,700.000000) scale(0.100000,-0.100000)"
fill="#000000" stroke="none">
<path d="M350 4290 l0 -2010 260 0 260 0 0 945 0 945 965 0 965 0 2 -942 3
-943 265 0 265 0 3 2008 2 2007 -270 0 -270 0 0 -835 0 -835 -965 0 -965 0 0
835 0 835 -260 0 -260 0 0 -2010z"/>
<path d="M5440 4828 c-580 -54 -1112 -340 -1428 -766 -205 -277 -329 -584
-389 -967 -25 -157 -25 -582 0 -750 100 -669 440 -1164 982 -1430 220 -108
420 -166 690 -201 162 -20 555 -15 740 11 217 30 434 84 562 140 l51 23 -43
164 c-64 244 -65 248 -76 248 -5 0 -22 -6 -37 -14 -56 -29 -214 -76 -338 -100
-530 -105 -1015 -33 -1379 205 -100 65 -274 239 -344 343 -56 83 -148 266
-176 350 -69 211 -98 405 -98 666 0 192 9 288 39 445 106 548 450 954 946
1114 421 137 941 113 1349 -63 l36 -15 62 212 c72 243 77 218 -49 266 -273
106 -725 155 -1100 119z"/>
</g>
</svg>
