<?xml version="1.0" encoding="utf-8"?>
<!-- Generator: Adobe Illustrator 21.1.0, SVG Export Plug-In . SVG Version: 6.00 Build 0)  -->
<svg version="1.1"
	 id="svg10626" inkscape:version="0.92.0 r15299" sodipodi:docname="logo.svg" xmlns:cc="http://creativecommons.org/ns#" xmlns:dc="http://purl.org/dc/elements/1.1/" xmlns:inkscape="http://www.inkscape.org/namespaces/inkscape" xmlns:rdf="http://www.w3.org/1999/02/22-rdf-syntax-ns#" xmlns:sodipodi="http://sodipodi.sourceforge.net/DTD/sodipodi-0.dtd" xmlns:svg="http://www.w3.org/2000/svg"
	 xmlns="http://www.w3.org/2000/svg" xmlns:xlink="http://www.w3.org/1999/xlink" x="0px" y="0px" width="200px" height="200px"
	 viewBox="0 0 200 200" style="enable-background:new 0 0 200 200;" xml:space="preserve">
<sodipodi:namedview  bordercolor="#666666" borderopacity="1" fit-margin-bottom="0" fit-margin-left="0" fit-margin-right="0" fit-margin-top="0" gridtolerance="10" guidetolerance="10" id="namedview10628" inkscape:current-layer="g10634" inkscape:cx="66.464447" inkscape:cy="49.849772" inkscape:pageopacity="0" inkscape:pageshadow="2" inkscape:window-height="781" inkscape:window-maximized="0" inkscape:window-width="1280" inkscape:window-x="0" inkscape:window-y="0" inkscape:zoom="1" objecttolerance="10" pagecolor="#ffffff" showgrid="false">
	</sodipodi:namedview>
<g id="g10634" transform="matrix(1.3333333,0,0,-1.3333333,-380.3388,1012.7982)" inkscape:groupmode="layer" inkscape:label="pdf">
	<path id="path11695" inkscape:connector-curvature="0" d="M360.9,623.4c-2.8,0.1-5.1,0.8-7.2,2.1c-0.7,0.5-1.2,0.9-1.9,1.6
		c-0.8,0.8-1.2,1.4-1.6,2.3c-0.4,0.8-0.6,1.9-0.7,3c-0.2,2.6,0.7,5.1,2.5,6.9c0.5,0.5,0.7,0.7,1.4,1.2c1.4,0.9,3,1.6,5.1,2
		c0.8,0.2,1.5,0.2,2.7,0.3c1.7,0,2.7-0.1,4.6-0.5c1.7-0.4,3.5-1.1,4.7-2c0.2-0.1,0.5-0.3,0.6-0.4c0.5-0.4,1.7-1.7,1.6-1.9
		c0,0-0.1-0.1-0.1-0.1c-0.1,0-1.4-0.4-1.9-0.6c-0.2-0.1-0.6-0.2-1-0.3s-0.9-0.3-1.2-0.4c-0.6-0.2-1.7-0.5-2.5-0.8
		c-0.4-0.1-0.7-0.2-0.8-0.2c-0.1,0-0.3,0.1-0.5,0.5c-0.2,0.2-0.7,0.5-1.2,0.7c-1.2,0.4-2.6,0.3-3.8-0.4c-0.8-0.5-1.6-1.5-1.8-2.4
		c-0.4-1.7,0-3.1,1.2-4.1c0.8-0.7,2-1,3.2-0.9c0.5,0,0.6,0.1,1,0.2c0.6,0.2,1,0.4,1.3,0.7c0.3,0.3,0.4,0.5,0.3,0.6c0,0-0.8,0-1.7,0
		c-1.1,0-1.7,0-1.7,0.1c0,0-0.1,0.5-0.1,2.2c0,1.9,0,2.1,0.1,2.2c0.1,0.1,12.4,0.1,12.5,0c0-0.1,0-2-0.1-2.6
		c-0.2-2.1-0.8-3.5-2.1-4.9c-1.4-1.5-3.9-2.8-6.4-3.3c-0.3-0.1-0.6-0.1-0.7-0.2C363.9,623.5,361.9,623.4,360.9,623.4L360.9,623.4z
		 M374.5,623.7l-2.3,0l0,0.1c0,0.1,0.6,1.6,1.2,3c0.1,0.3,0.3,0.8,0.4,1c0.1,0.2,0.2,0.5,0.2,0.6c0,0.1,0.1,0.3,0.2,0.4
		c0.1,0.2,0.2,0.4,0.2,0.5c0.1,0.1,0.3,0.7,0.6,1.4c0.8,1.9,1,2.4,1.3,3.1c0.2,0.4,0.3,0.7,0.3,0.7c0,0,0,0.1,0.1,0.2
		c0,0.1,0.2,0.4,0.3,0.7c0.1,0.3,0.3,0.6,0.3,0.8c0.1,0.1,0.1,0.2,0.1,0.2c0,0,0.4,1,0.5,1.3c0,0.1,0.2,0.4,0.3,0.7
		c0.1,0.3,0.4,1,0.6,1.4c0.2,0.4,0.5,1.1,0.6,1.5c0.2,0.4,0.3,0.8,0.4,0.8c0,0,1.5,0,4.5,0.1c3.8,0,4.5,0,4.5,0c0,0,0.1-0.2,0.2-0.5
		c0.3-0.7,0.5-1.1,0.5-1.3c0-0.1,0.1-0.3,0.2-0.5c0.1-0.2,0.2-0.4,0.2-0.5c0-0.1,0.1-0.3,0.2-0.4c0.2-0.4,0.4-1.1,0.9-2.1
		c0.2-0.5,0.5-1.1,0.6-1.3c0.3-0.7,1.3-3,1.4-3.3c0.1-0.1,1.2-2.7,1.5-3.6c0.1-0.3,0.2-0.5,0.3-0.6c0-0.1,0.1-0.2,0.1-0.3
		c0-0.1,0.1-0.2,0.1-0.2c0,0,0.1-0.1,0.1-0.3c0.1-0.1,0.2-0.4,0.3-0.7c0.1-0.2,0.2-0.4,0.2-0.4c0,0,0.1-0.3,0.3-0.6
		c0.1-0.3,0.3-0.6,0.3-0.7c0.2-0.5,0.5-1.2,0.5-1.3c0-0.1-0.3-0.1-4.3-0.1l-4.3,0l-0.1,0.1c0,0.1-0.1,0.4-0.2,0.6
		c-0.2,0.7-0.4,1.3-0.5,1.4c0,0.1-0.1,0.1-0.3,0.1c-0.1,0-1.4,0-2.9,0c-2.2,0-2.7,0-2.8-0.1c0,0-0.1-0.2-0.2-0.4
		c-0.1-0.2-0.2-0.6-0.3-1s-0.2-0.7-0.2-0.8c0-0.1-0.1-0.1-0.9-0.1c-0.5,0-1.4,0-2,0C377.3,623.7,375.7,623.7,374.5,623.7
		L374.5,623.7z M385.9,630.6c0,0,0,0.2-0.1,0.5c-0.1,0.3-0.2,0.6-0.2,0.7c0,0.1-0.2,0.6-0.3,1.1c-0.4,1.3-0.6,2-0.6,2.4
		c-0.1,0.7-0.2,0.9-0.3,0.7c0-0.1-0.4-1.4-0.9-3.2c-0.1-0.3-0.2-0.7-0.3-1c-0.2-0.9-0.3-1-0.2-1.1
		C383.1,630.5,385.8,630.5,385.9,630.6L385.9,630.6z M327.1,623.8c-0.1,0.1-0.1,0.1-0.1,9.3c0,5.1,0,9.2,0,9.3c0,0,4.9,0.1,7.4,0
		c2.2,0,3.1-0.1,4.4-0.3c1.4-0.2,2.3-0.4,3.4-0.8c2.2-0.8,3.9-2,4.9-3.5c0.3-0.5,0.4-0.6,0.5-0.8c0.1-0.1,0.2-0.4,0.2-0.5
		c0.2-0.3,0.4-1.1,0.5-1.6c0.1-0.7,0.1-0.8,0.2-1.5c0.1-1.8-0.3-3.4-1-4.8c-0.3-0.6-0.6-0.9-1-1.4c-1.5-1.6-3.6-2.7-6.1-3.2
		c-1.4-0.2-1.1-0.2-7.4-0.3C328,623.7,327.2,623.7,327.1,623.8L327.1,623.8z M337,629.5c1.1,0.2,1.9,0.5,2.4,1.1
		c0.5,0.5,0.8,1.2,0.8,2c0.1,1-0.2,1.8-0.6,2.4c-0.5,0.7-1.3,1.1-2.5,1.3c-0.2,0-0.7,0.1-1.1,0.1c-0.6,0-0.7,0-0.8,0
		c0,0-0.1-0.6-0.1-3.5c0-1.9,0-3.4,0-3.5c0,0,0.1,0,0.1-0.1C335.6,629.4,336.5,629.5,337,629.5L337,629.5z M313,637.3
		c-0.1,0.1-0.2,0.3-0.3,0.4c-0.1,0.1-0.2,0.3-0.3,0.4c-0.1,0.1-0.6,0.7-1.6,1.9c-0.3,0.4-0.5,0.6-0.7,1c-0.5,1-0.4,2,0.2,2.9
		c0.2,0.3,0.5,0.6,1.6,1.5c0.3,0.2,0.5,0.4,0.6,0.5c0.1,0,0.4,0.4,0.8,0.7c1.5,1.3,2.3,2,2.4,2.1c0.1,0.1,0.4,0.3,0.6,0.5
		c0.2,0.2,0.7,0.6,1.1,0.9c0.4,0.3,0.8,0.7,1,0.9c0.2,0.2,0.5,0.5,0.8,0.7c0.2,0.2,0.6,0.5,0.7,0.6c1.3,1,3,0.7,4.1-0.8
		c0.2-0.2,0.4-0.5,0.5-0.7c0.1-0.2,0.3-0.4,0.3-0.4c0-0.1,0.3-0.4,0.6-0.8c0.8-0.9,0.9-1.1,0.9-1.2c0,0-0.2-0.3-0.5-0.5
		c-0.3-0.2-0.6-0.5-0.7-0.6c-0.1-0.1-0.3-0.3-0.4-0.4c-0.3-0.3-1.5-1.3-2.3-2c-0.4-0.3-0.7-0.6-0.8-0.7c-0.4-0.3-1.1-1-1.2-1
		c0,0-0.2-0.2-0.4-0.4c-0.5-0.4-0.7-0.6-1.3-1.1c-0.2-0.2-0.8-0.7-1.2-1c-0.4-0.4-0.9-0.7-1-0.8s-0.3-0.3-0.5-0.5
		c-0.2-0.2-0.8-0.7-1.3-1.1c-1.3-1.1-1.4-1.2-1.4-1.2C313.2,637.2,313.1,637.2,313,637.3L313,637.3z M313.4,640.3
		c0.1,0,0.2,0.2,0.4,0.3s0.4,0.4,0.6,0.5s0.3,0.3,0.3,0.3c0,0,0.3,0.2,0.6,0.5c0.3,0.3,0.6,0.5,0.6,0.5c0,0,0.2,0.2,0.4,0.3
		c0.2,0.2,0.7,0.6,1,0.9s0.8,0.7,0.9,0.8c0.2,0.1,0.5,0.5,0.8,0.7c0.3,0.2,0.6,0.5,0.7,0.6c0.1,0.1,0.6,0.5,1,0.9
		c0.4,0.4,1,0.8,1.2,1c0.2,0.2,0.5,0.5,0.7,0.6c0.2,0.1,0.4,0.3,0.5,0.4c0.1,0.1,0.2,0.2,0.3,0.3c0,0.2-0.8,1.1-1.2,1.3
		c-0.2,0.1-0.3,0.1-0.5,0.1c-0.4,0-0.7-0.1-1.1-0.5c-0.2-0.2-0.5-0.4-0.7-0.6c-0.2-0.1-0.6-0.5-0.9-0.8c-0.3-0.3-0.8-0.7-1-0.8
		c-0.2-0.2-0.6-0.6-0.9-0.8c-0.3-0.3-0.7-0.6-0.9-0.8c-0.2-0.2-0.7-0.6-1-0.9c-0.3-0.3-0.8-0.7-1-0.9c-0.2-0.2-0.5-0.4-0.6-0.6
		c-0.1-0.1-0.4-0.4-0.7-0.6s-0.5-0.5-0.6-0.6c-0.2-0.3-0.2-0.9,0-1.3c0.1-0.2,0.7-1,0.8-1.1C313.2,640.2,313.3,640.2,313.4,640.3
		L313.4,640.3z M408.2,638.9c-0.1,0.1-0.3,0.2-0.5,0.3s-0.5,0.3-0.6,0.4c-0.4,0.2-2,1.2-2.2,1.3c-0.1,0-0.3,0.2-0.5,0.3
		s-0.5,0.3-0.6,0.4c-0.3,0.2-1.3,0.8-2.1,1.2c-0.3,0.2-0.9,0.5-1.3,0.8s-1,0.6-1.3,0.8s-0.5,0.3-0.6,0.4c-0.4,0.2-1.9,1.2-2.4,1.4
		c-0.2,0.1-0.3,0.2-0.3,0.2c0,0-0.4,0.2-0.7,0.4c-1.1,0.7-1.4,0.8-1.5,1c-0.1,0.1-0.1,0.1-0.1,0.2c0.1,0.2,1.4,1.7,1.5,1.7
		c0.1,0,0.6-0.3,1.3-0.7c1-0.6,1.5-1,1.6-1c0,0,0.2,0.2,0.6,0.6c0.2,0.2,0.5,0.7,0.8,1c0.3,0.3,0.5,0.7,0.5,0.7
		c0,0.1-0.1,0.2-0.5,0.7c-0.1,0.1-0.3,0.4-0.4,0.5c-0.1,0.1-0.3,0.4-0.4,0.5c-0.1,0.1-0.3,0.3-0.4,0.4c-0.1,0.1-0.2,0.2-0.3,0.3
		c-0.2,0.2-0.2,0.2,0.3,0.9c0.6,0.7,0.9,1,1,1c0,0,0.1-0.1,0.2-0.2c0.5-0.6,0.9-1.1,1-1.2c0.1-0.1,0.1-0.1,0.9-1.2
		c0.3-0.4,0.7-0.9,0.8-1.1c0.1-0.2,0.4-0.5,0.6-0.8c0.2-0.2,0.4-0.5,0.5-0.6c0.1-0.1,0.3-0.4,0.4-0.5c0.3-0.4,0.5-0.6,1-1.3
		c0.2-0.3,0.7-0.9,1-1.3s0.7-0.9,0.8-1c0.1-0.1,0.2-0.3,0.3-0.4s0.3-0.4,0.4-0.5c0.1-0.1,0.4-0.5,0.6-0.7c0.2-0.3,0.4-0.6,0.5-0.7
		c0.1-0.1,0.2-0.3,0.3-0.4c0.1-0.1,0.3-0.4,0.5-0.6c0.8-1,1-1.2,1-1.3c0-0.1,0-0.1-0.1-0.3c-0.2-0.2-1-1.2-1.2-1.4
		c-0.1-0.1-0.2-0.2-0.2-0.2C408.4,638.7,408.3,638.8,408.2,638.9L408.2,638.9z M404.8,643.8c-0.2,0.2-0.4,0.5-0.5,0.6
		s-0.3,0.4-0.4,0.6c-0.1,0.2-0.4,0.5-0.5,0.7c-0.2,0.2-0.4,0.5-0.5,0.6c-0.1,0.1-0.4,0.5-0.7,0.9c-0.3,0.4-0.7,0.8-0.8,1
		c-0.2,0.3-0.3,0.4-0.4,0.4c-0.1,0-1.4-1.6-1.4-1.7c0,0,0.2-0.2,0.4-0.3c0.5-0.3,2.4-1.5,3.2-2c0.3-0.2,0.7-0.5,0.9-0.5
		c0.5-0.3,1-0.6,1-0.5C405,643.4,404.9,643.6,404.8,643.8L404.8,643.8z M373.3,645.2c-0.5,0-2.5,0.3-3.5,0.6
		c-1.8,0.4-2.7,0.6-3.5,1.1c-0.4,0.2-0.5,0.3-0.9,0.6c-0.3,0.2-0.3,0.2-0.3,0c0.1-0.4,0.4-0.9,1.1-1.2c0.4-0.2,0.7-0.4,0.7-0.5
		c0-0.1-0.1-0.1-0.7-0.1c-1.1,0.1-1.6,0.2-3,0.9c-0.8,0.4-1.1,0.6-1.6,1c-0.4,0.4-0.5,0.4-0.5,0.3c-0.2-0.1,0.6-1.2,1.4-1.8
		c0.3-0.2,0.4-0.4,0.2-0.4c-0.1,0-0.3,0-0.6,0c-0.3,0-0.9,0.1-1.3,0.2c-0.8,0.1-1.4,0.3-1.7,0.4c-0.3,0.1-0.9,0.7-1.3,1
		c-0.4,0.4-0.5,0.4-0.5,0.2c0-0.2,0.2-0.6,0.7-1.1c0.4-0.4,0.5-0.6,0.4-0.6c-0.2,0-3,0-4.3,0c-1.6,0-1.7,0-1.7,0.1
		c0,0.1,0.2,0.4,0.7,0.9c0.2,0.2,0.4,0.6,0.6,0.9c0.6,1.2,1,3.1,0.9,4.8c-0.1,0.9-0.2,1.9-0.4,2.7c-0.1,0.4-0.2,0.9-0.3,1.3
		c-0.1,0.8-0.2,1-0.5,1.3c-0.4,0.6-1.1,1-2.3,1.3c-0.4,0.1-0.9,0.3-1.1,0.3c-0.9,0.3-2.2,1.1-1.8,1.1c0,0,0.4-0.1,0.8-0.2
		c1.4-0.5,2.1-0.6,2.2-0.5c0.1,0,0.1,0.1,0.1,0.4c0,0.5-0.1,0.9-0.4,1.3c-0.2,0.3-0.4,0.7-0.5,1.1c0,0.1-0.1,0.4-0.1,0.6
		c-0.2,0.7-0.1,0.8,0.7,0.5c0.3-0.1,0.4-0.2,0.7-0.5c0.2-0.2,0.6-0.6,0.9-0.8c0.3-0.3,0.7-0.5,0.7-0.6s0.3-0.2,0.4-0.3
		c0.2-0.1,0.3-0.1,0.3-0.1c0.2,0.1,0.1,0.7-0.4,2.5c-0.3,1.1-0.3,1.3-0.2,1.4c0.1,0.1,0.2,0.1,0.3,0.1c0,0,0.2-0.2,0.3-0.3
		c0.6-0.7,2.1-1.8,2.5-1.8c0.2,0,0.2,0.1,0.2,0.6c0,0.4-0.1,0.8-0.3,1.4c-0.3,0.9-0.3,1.1-0.3,1.1c0,0,0.2,0,0.5,0
		c0.5,0,0.8,0,1,0.2c0.1,0.1,0.1,0.2,0.1,0.3c0,0.1,0,0.2-0.3,0.6c-0.2,0.2-0.6,0.6-0.7,0.7c0,0-0.1,0-0.1,0c0,0,0-0.1,0.1-0.3
		c0.1-0.1,0.2-0.3,0.2-0.3c0-0.2-0.7-0.2-1.1,0c-0.2,0.1-0.4,0.1-0.4,0.2c-0.2,0-0.5,0-0.7-0.2c-0.1-0.1-0.1-0.1,0.1-0.5
		c0.2-0.3,0.4-0.9,0.5-1.4c0.1-0.5,0-0.6-0.4-0.3c-0.6,0.4-1.3,0.8-1.5,0.8c-0.3,0-0.5-0.5-0.3-1.1c0.1-0.5,0-1.3-0.2-1.5
		c-0.1-0.1-0.1-0.1-0.3-0.1c-0.4,0-1,0.3-1.6,0.8c-0.5,0.4-0.8,0.6-1.3,0.8l-0.4,0.2l-0.4,0c-0.5,0-0.7-0.1-1-0.3
		c-0.2-0.1-0.1-0.1,0.2-0.3c0.3-0.1,0.7-0.4,1.1-0.8c0.9-1,1.1-1.3,1.3-2.3c0.1-0.6,0.1-1-0.1-1c0,0-0.3,0.2-0.6,0.5
		c-0.3,0.3-0.6,0.5-0.7,0.6c-0.3,0.2-1,0.7-1.7,1.3c-0.7,0.5-1.1,1-1.5,1.4c-0.4,0.5-1,0.8-1.9,1.1l-0.3,0.1l-0.2-0.1
		c-0.5-0.3-1.2-0.9-1.5-1.3c-0.3-0.3-0.8-0.9-1-1.1c-0.2-0.1-0.6-0.3-0.7-0.2c-0.1,0-0.1,0.3,0,0.9c0.1,0.6,0.1,0.7,0,0.8
		c-0.1,0.1-0.2,0-0.3-0.1c-0.2-0.2-0.5-1-0.6-1.9c-0.1-0.4-0.1-0.5-0.2-0.5c-0.2,0-1.2,0.9-1.5,1.3c-0.1,0.1-0.2,0.3-0.3,0.4
		c-0.4,0.6-0.5,1.1-0.4,1.5c0.1,0.2,0.3,0.7,0.5,0.9c0.2,0.3,0.8,1.1,0.9,1.3c0,0.1,0.1,0.3,0.1,0.8c0,0.3,0.1,0.8,0.1,0.9
		c0.1,0.3,0.3,1,0.5,1.3c0.3,0.4,0.8,0.9,1.6,1.3c0.3,0.2,0.5,0.3,0.6,0.3c0.1,0,0.2,0.1,0.2,0.1c0.1,0,0.3,0.1,0.6,0.2
		c0.8,0.3,1.9,0.6,3,0.9c0.3,0.1,0.7,0.2,1,0.2c0.3,0.1,0.7,0.1,0.9,0.2c0.5,0.1,1.5,0.1,2,0c0.3,0,0.9-0.1,1.7-0.1l1.3,0l0.1,0.1
		c0.1,0.2,0.2,0.4,0.2,0.8c0,1.4-0.5,3-1.6,4.5c-0.5,0.8-0.9,1.3-1.7,2c-0.9,0.8-1.6,1.6-2,2c-0.9,1-1.5,1.8-1.7,2
		c0,0.1-0.2,0.2-0.3,0.4c-0.6,0.8-1.1,1.6-1.3,2.1c0,0.1-0.1,0.3-0.2,0.4c-0.1,0.1-0.1,0.2-0.1,0.3s-0.1,0.2-0.2,0.5
		c-0.2,0.4-0.2,0.6-0.5,1.4c-0.3,1-0.4,1.2-0.6,1.7c-0.1,0.3-0.2,0.6-0.2,0.7c0,0.1-0.3,0.9-0.6,1.8c-0.7,2.2-1,2.9-1.4,4.2
		c-0.7,2.2-1,3-1.9,4.5c-0.2,0.3-0.5,0.8-0.9,1.4c-0.3,0.4-1.1,1.2-1.3,1.4c-0.2,0.2-0.6,0.4-1.8,0.9c-0.6,0.3-0.8,0.4-1,0.6
		c-0.2,0.2-0.3,0.3-0.2,0.4c0,0,0.3,0,0.7,0c0.5,0,0.7,0,1-0.1c0.9-0.2,2-1,2.7-1.8c0.4-0.5,0.6-0.7,0.9-0.9
		c0.3-0.2,0.5-0.3,0.6-0.3c0.1,0,0.1,0.1,0,0.4c0,0.4-0.1,0.5-0.3,0.9c-0.1,0.1-0.1,0.2-0.2,0.3c-0.4,0.7-2.1,2.5-3.2,3.5
		c-0.3,0.3-0.6,0.5-0.6,0.5c0,0-0.2,0.2-0.4,0.4s-0.7,0.6-1,0.9s-1,0.9-1.4,1.3c-0.9,0.8-0.9,0.8-1,0.9c-0.1,0.2,0.1,0.3,0.4,0.3
		c0.1,0,0.8-0.3,1.1-0.5c0.3-0.1,0.3-0.1,1-0.3c1.1-0.3,1.4-0.4,1.6-0.5c0.1-0.1,0.3-0.2,0.5-0.3c0.1-0.1,0.6-0.4,1-0.8
		c1.2-1,3.7-3.7,4.7-5c0.4-0.5,0.8-0.9,0.9-0.9c0.1,0,0,0.4-0.1,0.7c-0.2,0.4-0.5,0.9-1.7,2.6c-0.3,0.4-0.6,0.9-0.8,1.1
		c-0.1,0.2-0.3,0.4-0.4,0.6c-0.1,0.1-0.3,0.4-0.4,0.5c-0.2,0.3-0.4,0.6-1.3,1.8c-0.3,0.3-0.8,1-1.1,1.5s-0.7,0.9-0.8,1.1
		c-0.4,0.4-0.5,0.6-0.5,0.8c0,0.2,0,0.2,0.2,0.2c0,0,0.3-0.1,0.5-0.3c0.2-0.1,0.5-0.3,0.7-0.4c0.1-0.1,0.5-0.3,0.8-0.4
		c0.3-0.2,0.6-0.3,0.7-0.4c0.1-0.1,0.2-0.1,0.3-0.2c0.8-0.4,2.8-2.3,4-3.6c0.8-0.9,1.2-1.6,3-4.2c0.9-1.4,1.4-2,1.6-2.3
		c0.4-0.6,1.2-1.2,1.3-1.2c0.1,0,0,0.3-0.2,0.9c-0.2,0.5-0.7,1.6-1,2.1c-0.4,0.7-0.8,1.4-1.1,1.8c-0.1,0.2-0.2,0.4-0.3,0.5
		c-0.9,1.4-1.2,2-1.9,3c-0.4,0.6-0.9,1.4-1.1,1.7s-0.3,0.5-0.3,0.5c0,0-0.1,0.1-0.2,0.2c-0.4,0.7-1.4,2-1.5,2.2
		c-0.1,0.1-0.2,0.3-0.3,0.5c0,0.2,0.1,0.2,0.3,0.2c0.2-0.1,0.4-0.3,1.3-1.2c0.6-0.6,1.4-1.4,1.6-1.6c0.6-0.6,0.6-0.5,1.6-1.6
		c0.9-1,1.4-1.5,1.8-2c0.5-0.5,0.5-0.6,0.7-1c0.1-0.2,0.2-0.4,0.3-0.5s0.2-0.3,0.3-0.5s0.5-0.9,0.9-1.6c1.1-2,2.2-3.6,2.7-3.8
		l0.2-0.1l-0.1,0.2c-0.1,0.1-0.2,0.3-0.2,0.4c-0.1,0.1-0.2,0.4-0.3,0.6c-0.3,0.6-0.5,1.1-1,2.1c-0.2,0.4-0.4,0.8-0.5,0.9
		c-0.1,0.2-0.7,1.1-0.8,1.2c0,0.1-0.1,0.1-0.1,0.2c-0.1,0.2-0.9,1.1-1.3,1.6c-0.6,0.6-0.9,1-1,1.2c-0.1,0.1-0.2,0.2-0.3,0.3
		c-0.5,0.6-1.1,1.5-1.6,2.4c-0.3,0.5-0.3,0.7-0.2,0.8c0.2,0.2,0.4,0,1.6-1.2c0.9-0.9,1.4-1.5,2.3-2.5c0.4-0.5,0.5-0.6,0.7-0.8
		c0.1-0.1,0.2-0.3,0.3-0.4c0.1-0.1,0.3-0.3,0.5-0.6c0.2-0.2,0.5-0.6,0.6-0.7c0.3-0.4,0.4-0.5,0.9-1.2c0.6-0.8,0.7-0.9,0.8-1
		c0.1-0.1,0.2-0.2,0.3-0.4c0.3-0.4,1.1-1.4,1.9-2.6c0.7-0.9,1.8-2.6,2.3-3.6c0.5-1,0.6-1.1,1.1-2.2c0.3-0.6,0.6-1.2,0.7-1.5
		c0.1-0.3,0.3-0.7,0.4-1c0.1-0.3,0.3-0.7,0.3-0.8c0.1-0.2,0.2-0.5,0.2-0.7c0.1-0.2,0.2-0.6,0.2-0.8c0.1-0.2,0.1-0.5,0.1-0.5
		c0.1-0.5,0.4-1.5,0.6-2.2c0.1-0.4,0.2-0.9,0.2-1.1c0-0.2,0.1-0.4,0.1-0.6s0.1-0.4,0.1-0.6s0.1-0.5,0.1-0.7c0.1-1.1,0.2-2,0.2-3.1
		c0-1.3-0.1-2.1-0.2-2.6c-0.1-0.2-0.1-0.5-0.2-0.7c0-0.1-0.1-0.6-0.2-1c-0.1-0.4-0.2-0.8-0.2-0.9c0-0.2,0-0.2,0.1-0.2
		c0.2,0,0.7,0.6,0.7,0.9c0,0.1,0.1,0.4,0.1,0.6c0.1,1.3,0.1,1.7,0.4,2.4c0.3,0.9,1.3,2.7,2.5,4.5c0.2,0.2,0.6,0.9,1,1.6
		c0.7,1.1,1,1.5,1.4,2c1.2,1.7,1.4,1.9,2.4,3.3c1.3,1.7,1.8,2.4,2.3,3c0.2,0.2,0.4,0.5,0.4,0.6c0.1,0.1,0.2,0.3,0.4,0.5
		c0.1,0.2,0.4,0.5,0.5,0.6c0.1,0.2,0.4,0.5,0.6,0.8s0.5,0.7,0.6,0.9s0.3,0.5,0.4,0.7c0.3,0.4,0.9,1.7,1.1,2.1c0.3,0.8,0.7,1.6,1,2.6
		c0.2,0.5,0.5,1.6,0.7,2.3c0.1,0.4,0.2,0.9,0.3,1.1c0.2,0.8,0.5,2.2,0.6,3.3c0,0.4,0.1,1,0.1,1.3c0.1,0.8,0.3,3.2,0.3,3.8
		c0,0.5,0,0.5,0.1,0.6c0.1,0,0.1,0,0.3-0.1c0.3-0.1,0.5-0.4,0.6-0.9c0.2-0.7,0.2-0.8,0.3-1.5c0.1-0.4,0.2-0.9,0.2-1.3
		c0.1-0.3,0.1-0.6,0.1-0.7c0-0.1,0-0.2,0-0.3c0-0.1,0-0.3,0.1-0.5c0-0.2,0.1-0.7,0.1-1c0.2-1.2,0.1-3.1,0-4.4
		c-0.1-0.8-0.4-2.4-0.7-3.7c-0.9-3.7-1.1-4.5-2.2-7.4c-0.5-1.4-0.6-1.8-0.5-1.8c0.1-0.1,0.2,0,0.5,0.4c0.9,1,2,2.8,2.6,4.3
		c0.1,0.2,0.2,0.6,0.3,0.9c0.1,0.3,0.2,0.7,0.2,0.8c0.1,0.5,0.5,2,0.6,2.7c0.2,0.9,0.2,2.1,0.3,4.8c0,1.2,0.1,2.3,0.1,2.4
		c0,0.1,0,0.4,0,0.6s0,0.7,0,0.9c0,0.2,0,0.7,0,1c0.1,3.1,0.1,3.4,0.1,3.9c0,0.5,0,0.7,0.1,0.7c0.2,0.1,0.6-0.1,0.9-0.5
		c0.2-0.2,0.5-1.1,0.6-1.6c0.2-0.7,0.4-1.7,0.5-2.5c0-0.2,0.1-0.4,0.1-0.5c0.1-0.6,0.2-2,0.3-3.1c0.1-1,0.1-1.3,0-2
		c0-0.8-0.2-2.3-0.3-3c-0.2-1.5-0.4-2.7-0.7-3.9c-0.2-0.8-0.3-1.1-0.4-1.8c-0.2-0.7-0.6-2.1-0.8-2.8c-0.2-0.6-0.7-2-1-2.5
		c-0.1-0.3-0.4-0.9-0.6-1.5c-0.1-0.4-0.2-0.6-0.2-0.8c0-0.4,0-0.4,0.3-0.3c0.3,0.1,0.7,0.5,1,1c0.2,0.4,0.7,1.4,1,1.9
		c0.1,0.2,0.2,0.5,0.3,0.7c0.2,0.4,0.2,0.4,0.5,1.4c0.1,0.4,0.3,0.9,0.3,1c0,0.2,0.1,0.6,0.2,0.9c0.1,0.3,0.2,0.7,0.2,0.8
		c0,0.2,0.2,0.7,0.3,1.2c0.1,0.5,0.2,1.1,0.3,1.3c0.5,2.1,0.8,6.6,0.7,11.1c0,3,0,3.3,0.1,3.4c0.1,0.1,0.2,0.1,0.3,0
		c0.1-0.1,0.4-0.7,0.4-0.8c0-0.1,0.1-0.2,0.1-0.2c0.2-0.5,0.6-1.9,0.8-2.8c0.2-1,0.4-2.5,0.4-3.1c0-0.2,0.1-0.7,0.1-1.1
		c0.1-1.3,0.1-4-0.1-5.5c0-0.3-0.1-0.7-0.1-0.9c-0.1-0.6-0.3-2.2-0.5-2.9c-0.8-3.8-1.2-5.3-1.8-6.9c-1.2-3.2-1.5-3.8-1.5-4.2
		c0-0.2,0-0.3,0.1-0.3c0.1,0,0.3,0.2,0.5,0.5c0.2,0.2,0.7,1.2,0.9,1.8c0.3,0.7,0.8,2.1,1,2.7c0.1,0.3,0.3,0.8,0.4,1.1
		c0.1,0.3,0.2,0.6,0.2,0.7c0,0.1,0.2,0.6,0.3,0.9c0.2,0.6,0.5,1.8,0.6,2.1c0,0.1,0.1,0.3,0.1,0.4c0.2,0.5,0.6,2.2,0.7,2.8
		c0.3,1.4,0.5,4,0.5,7.2c0,1.9,0,1.9,0.1,1.9c0.2,0,0.5-0.6,0.8-1.2c0-0.1,0.1-0.3,0.2-0.4c0.2-0.5,0.4-1.4,0.5-2.7
		c0.2-1.4,0.2-4.1-0.1-6.5c-0.1-0.7-0.1-1.4-0.2-1.5c0-0.1,0-0.3-0.1-0.4c-0.1-1-0.3-1.8-0.5-2.8c-0.7-3.2-1.5-5.4-2.9-7.8
		c-0.3-0.6-0.6-0.9-1.1-1.6c-1.2-1.7-2-2.6-4.4-4.9c-1.6-1.6-1.7-1.8-1.7-1.9c0-0.1,0-0.2,0.1-0.4c0-0.2,0.1-0.4,0.1-0.6
		c0-0.2,0-0.5,0.1-0.7c0-0.4,0-0.9,0-1.1c-0.1-0.5-0.2-0.9-0.3-1.2c-0.2-1-0.7-2.3-1.5-3.8c-0.5-0.9-0.8-1.4-1-1.8
		c-0.5-0.8-1.5-1.9-2.3-2.4c-0.2-0.1-0.4-0.3-0.4-0.3c0,0,0-0.1,0-0.3c0.1-1.3,0.1-1.7,0.1-2.2c-0.1-0.5-0.2-0.8-0.3-1
		c-0.2-0.3-0.2-1.2,0-1.9c0.1-0.3,0.3-0.6,0.8-0.9c0.1-0.1,0.3-0.3,0.5-0.4c0.2-0.1,0.5-0.4,0.6-0.5c0.4-0.3,0.7-0.5,1.4-1
		c0.8-0.6,1.3-1,1.7-1.3c0.2-0.1,0.5-0.4,0.7-0.5c0.2-0.1,0.4-0.3,0.5-0.4c0.1-0.1,0.3-0.2,0.5-0.4c0.2-0.1,0.4-0.3,0.5-0.4
		c0.3-0.2,1.2-0.9,1.8-1.3c0.1-0.1,0.3-0.2,0.4-0.3c0.2-0.1,0.4-0.3,0.6-0.5s0.4-0.3,0.5-0.4c0.2-0.2,0.3-0.3,0.3-0.3
		c0-0.1-0.3-0.1-0.8-0.2c-0.4,0-0.5,0-0.7,0.1c-0.5,0.2-0.5,0.2-1.4,0.9c-0.3,0.2-0.5,0.3-0.6,0.2c0,0-0.1-0.1-0.1-0.1
		c0-0.1,0.2-0.4,0.4-0.7c0.1-0.2,0.3-0.4,0.3-0.5c0.1-0.2,0.2-0.3,0.3-0.4c0.3-0.2,0.3-0.4,0.2-0.5c0,0-0.2-0.1-0.2-0.1
		c-0.2-0.1-0.9-0.1-1.5,0c-0.6,0.1-0.7,0-0.6-0.1c0-0.2,0.2-0.5,0.5-0.8c0.4-0.5,0.5-0.7,0.5-0.8c0-0.2,0-0.3-0.5-0.1
		c-0.2,0.1-0.5,0.2-0.7,0.3c-0.6,0.2-1.1,0.3-1.5,0.3c-0.6,0-0.6,0-0.5-0.6c0.1-0.8,0.1-1.5,0-1.5c0,0-0.1,0.2-0.3,0.4
		c-0.5,0.9-1.7,2.2-3.2,3.4c-1.4,1.2-2.6,2.1-3.3,2.4c-0.9,0.5-2.4,1-3.9,1.5c-0.8,0.2-1.3,0.3-1.5,0.2c-0.2-0.1-0.6-0.5-0.6-0.6
		c-0.2-0.5,0.5-1.9,1.7-3.3c0.3-0.4,0.4-0.5,0.8-0.9c0.6-0.7,1.8-1.8,2.5-2.3c1.3-1,2.7-1.7,3.5-2c0.2-0.1,0.6-0.2,1-0.3
		c0.7-0.2,0.8-0.2,0.9-0.3c0-0.1,0-0.1-0.1-0.2C374.6,645.2,374.3,645.1,373.3,645.2L373.3,645.2z M363.7,655.8
		c0.2,0,0.4,0.1,0.5,0.1c0.2,0.1,0.5,0.4,0.5,0.5c0,0.1-0.1,0.2-1.1,0.1l-0.9,0l-0.8,0.1c-1.3,0.2-2.1,0.3-2.5,0.2
		c-0.5-0.1-1.1-0.1-1.5,0c-0.2,0-0.5,0.1-0.6,0.1c-0.2,0-0.3,0-0.3-0.1c-0.1-0.1-0.1-0.3,0-0.3c0.3-0.2,2-0.6,2.7-0.7
		C360.5,655.8,363,655.7,363.7,655.8L363.7,655.8z M372.4,662.9c0,0,0.1,0.2,0.1,0.4c0,0.2,0.1,0.4,0.1,0.5s0.1,0.3,0.1,0.4
		c0,0.2,0,0.2-0.1,0.4c-0.1,0.1-0.2,0.2-0.2,0.2c-0.1,0-0.2-0.1-0.3-0.3c-0.1-0.1-0.1-1.1-0.1-1.3
		C372,662.9,372.3,662.7,372.4,662.9L372.4,662.9z M366.1,663.1c0.3,0.1,0.9,0.2,1.1,0.3c0.4,0.2,1.1,0.7,1.5,1.1
		c0.5,0.5,0.7,0.8,1.1,1.5c0.2,0.3,0.3,0.6,0.3,0.6c0,0.1,0.6,1.3,0.7,1.6c0.2,0.4,0.5,1.7,0.7,2.7c0.1,0.6,0.1,0.7,0.1,1.1
		c0,0.5-0.1,0.6-0.2,0.4c-0.1,0-0.1-0.1-0.1-0.1s0-0.1-0.1-0.2c0-0.1-0.1-0.3-0.2-0.5c-0.6-1.6-1.2-2.6-1.8-3
		c-0.2-0.2-0.9-0.4-1.3-0.5c-0.2,0-0.7-0.1-1.1-0.1c-1.4-0.1-1.5-0.2-0.3-0.4c0.5-0.1,0.6-0.1,1.1-0.1c0.3,0,0.7,0,0.8,0.1
		c0.3,0.1,0.4,0,0.4-0.1c0.1-0.2,0-0.4-0.1-0.8c-0.1-0.2-0.2-0.5-0.2-0.8c-0.1-0.3-0.2-0.6-0.2-0.7c-0.2-0.4-0.6-0.7-1.1-0.8
		c-0.3-0.1-1.3-0.1-1.9,0c-0.8,0.2-1.8,0.4-2.8,0.8c-0.8,0.3-1,0.3-2,0.4c-1.2,0.1-1.5,0.1-1.4-0.2c0.2-0.5,1.5-1.3,2.8-1.7
		c0.8-0.2,2.4-0.6,2.8-0.6C365.1,663,365.8,663,366.1,663.1L366.1,663.1z M340.9,668.6c0.2,0.1,0.2,0.1,0.4,0.5
		c0.1,0.2,0.3,0.5,0.3,0.6c0.1,0.1,0.1,0.2,0.1,0.3c0,0-0.5-0.1-0.7-0.3c-0.1-0.1-0.3-0.2-0.4-0.3c-0.1-0.2-0.1-0.2-0.1-0.5
		C340.5,668.5,340.5,668.4,340.9,668.6L340.9,668.6z M363.4,668.6c0.5,0.1,1.1,0.5,1.3,0.8c0.3,0.4,0.3,1.3,0.1,1.8
		c-0.1,0.1-0.1,0.3-0.2,0.3c-0.1,0-0.2,0.3-0.2,0.5c0,0.2,0,0.3,0.2,0.7c0.3,0.5,0.4,0.8,0.5,1.3c0.1,0.5,0.1,1.6,0.1,2.7
		c0,1.2,0,1.1-0.4,1.1c-0.2,0-0.4-0.1-0.5-0.3c0-0.1-0.1-0.3-0.2-0.5c-0.1-0.5-0.2-0.6-0.6-1.2c-0.7-0.8-0.8-1-0.6-1.1
		c0,0,0.2-0.1,0.4-0.2c0.4-0.1,0.7-0.2,0.8-0.4c0.1-0.1,0.1-0.1,0.1-0.4c0-0.3-0.1-0.4-0.4-0.6c-0.1-0.1-0.3-0.3-0.4-0.4
		c-0.1-0.1-0.3-0.4-0.5-0.6s-0.3-0.4-0.3-0.4c0,0,0.2-0.1,0.5-0.1c0.8-0.2,1-0.3,1-0.8c0-0.3-0.2-0.7-0.4-0.9
		c-0.2-0.3-0.5-0.4-0.8-0.4c-0.3,0-0.4-0.1-0.4-0.2c0.1-0.2,0.3-0.6,0.4-0.7c0.1,0,0.1-0.1,0.1-0.1
		C363.1,668.6,363.3,668.6,363.4,668.6L363.4,668.6z M375,669.1c0.1,0.1,0.4,0.5,0.6,0.8c0.1,0.2,0.3,0.4,0.4,0.6
		c0.2,0.4,0.5,0.8,0.5,0.8c0,0,0.1,0.2,0.2,0.4c0.5,1,0.9,2.9,1,4.1c0,0.2,0,0.6,0.1,0.8c0.1,0.8,0.1,1.2,0,1.2
		c-0.1,0-0.1-0.1-0.2-0.5c0-0.1-0.1-0.3-0.1-0.4c-0.1-0.3-0.8-2.3-1.3-3.4c-0.1-0.2-0.4-1.2-0.4-1.2c0,0,0.1-0.1,0.1-0.1
		c0.1,0,0.1,0,0.1-0.3c-0.3-1-0.5-1.4-0.8-2C374.8,669.5,374.8,669.1,375,669.1C374.9,669.1,374.9,669.1,375,669.1L375,669.1z
		 M352.1,672.3c0,0,0,0.1,0,0.1c-0.2,0.2-0.5,0.3-1.4,0.5c-0.6,0.1-0.7,0.2-1.6,0.2c-0.5,0-1.1,0.1-1.3,0.1s-0.4,0.1-0.5,0.1
		c-0.2,0-0.9-0.1-1-0.2c-0.1-0.1,0.3-0.1,1-0.2c0.4,0,1-0.1,1.3-0.2c0.4-0.1,0.8-0.1,0.9-0.1c0.1,0,0.6-0.1,1-0.2
		c0.9-0.1,0.9-0.1,1.3-0.2C352,672.2,352.1,672.2,352.1,672.3L352.1,672.3z M354.7,672.5c0.3,0.1,0.4,0.1,0.8,0.2
		c0.9,0.1,1.3,0.2,1.7,0.6c0.5,0.5,0.7,0.9,1,1.8c0.1,0.3,0.3,1,0.5,1.5c0.3,0.9,0.4,1.3,0.4,1.8c0,0.4,0,0.3-0.3-0.4
		c-0.3-0.8-0.5-1.3-0.6-1.7c-0.1-0.2-0.2-0.4-0.2-0.4c-0.2-0.5-0.7-1.1-1.1-1.6c-0.5-0.5-1.4-1-2.4-1.4c-0.4-0.1-0.7-0.3-0.7-0.3
		l-0.1-0.1l0.1-0.1C353.9,672.3,354.4,672.3,354.7,672.5L354.7,672.5z M369,672.8c0.2,0,0.5,0.1,0.8,0.1c0.6,0,0.7,0.1,1,0.4
		c0.5,0.5,1.3,1.8,1.6,2.7c0.3,0.8,0.4,1.4,0.4,2.4c0,0.5,0,0.5,0,0.6c-0.1,0.1-0.2,0.1-0.3,0.1c-0.1,0-0.2-0.2-0.2-0.7
		c-0.1-0.9-0.2-1.6-0.5-2c-0.2-0.3-0.8-0.9-1.2-1.2c-0.2-0.2-0.6-0.4-0.8-0.6c-0.7-0.5-1.5-1.6-1.3-1.8
		C368.6,672.7,368.7,672.7,369,672.8L369,672.8z M357.1,676.3c0.3,0.4,0.4,0.8,0.4,1.7c0,0.7,0,0.8-0.2,0.9c-0.1,0-0.1,0-0.2,0
		c0,0-0.1-0.1-0.1-0.2c-0.1-0.2-0.1-1-0.2-1.7c0-0.7,0-0.8,0.1-0.8C356.9,676.1,357,676.2,357.1,676.3L357.1,676.3z M362.9,677.1
		c0.3,0.1,0.8,0.5,1.1,0.9c0.3,0.3,0.6,0.8,0.6,0.9c0,0,0,0.1,0.1,0.2c0.1,0.2,0.2,0.7,0.3,1.1c0,0.3,0,0.4,0,0.6
		c-0.1,0.4-0.4,0.5-0.7,0.3c-0.2-0.1-0.3-0.3-0.4-1c-0.2-1-0.3-1.2-0.7-1.7c-0.3-0.3-0.7-0.8-0.8-0.9c-0.1-0.2-0.1-0.3,0.1-0.4
		C362.6,677,362.7,677,362.9,677.1z M355.7,679c0.2,0.1,0.3,0.2,0.4,0.4c0.1,0.3,0.1,0.7,0,0.9c-0.1,0.2-0.4,0.9-0.5,1.2
		c-0.7,1.4-1.1,2-2,2.8c-0.6,0.6-0.8,0.7-1.3,1c-0.5,0.3-1.2,0.5-2,0.5c-0.5,0-0.7-0.1-0.7-0.3c0-0.2,0.1-0.3,0.4-0.3
		c0.5-0.1,1.1-0.4,1.2-0.5c0.2-0.1,0.6-0.5,0.7-0.7c0.1-0.1,0.2-0.4,0.3-0.8c0.2-0.6,0.3-1.2,0.5-2.3c0.1-0.5,0.2-0.9,0.3-0.9
		c0.1,0,0.2,0.2,0.3,1.1c0.1,1,0.2,1.4,0.5,1.4c0.2,0,0.3-0.2,0.6-0.6c0.4-0.7,0.6-1.4,0.6-1.7c0-0.2,0.1-0.8,0.2-0.9
		c0.1-0.2,0.2-0.3,0.3-0.3C355.5,678.9,355.6,678.9,355.7,679L355.7,679z M369.6,679c0.6,0.2,1,0.3,1.4,0.8c0.4,0.4,0.8,0.9,1,1.2
		c0.2,0.3,0.4,0.9,0.5,1.5c0.1,0.5,0.1,0.5,0,1c-0.1,0.4-0.1,0.5-0.2,0.8c-0.2,0.4-0.4,0.6-0.8,0.8c-0.3,0.2-0.4,0.3-0.4,0.7
		c0,0.3,0.2,0.9,0.3,1.3c0.1,0.2,0.1,0.4,0.1,0.9l0,0.6l-0.1,0.3c-0.2,0.4-0.5,0.7-0.9,0.9c-0.4,0.2-0.4,0.2-0.5,0.4
		c-0.1,0.1-0.1,0.2,0,1.5l0,1.4l-0.1,0.2c-0.1,0.1-0.2,0.2-0.3,0.3c-0.1,0.1-0.2,0.1-0.2,0.1c-0.1-0.1-0.1-0.4-0.1-1.4
		c0-0.8,0-1-0.1-1.2c-0.1-0.3-0.9-1.6-1.4-2.1c-0.5-0.5-0.5-0.6-0.5-1.1c0-0.4,0-0.4,0-0.4c0.1,0,0.4,0.1,0.8,0.4
		c1.1,0.7,1.1,0.8,1.5,0.7c0.2,0,0.5-0.2,0.6-0.4c0.1-0.2,0.2-0.6,0.2-1c0-0.9-0.1-1.1-1-2.1c-0.7-0.7-0.8-0.9-0.9-1.3
		c-0.1-0.3-0.1-0.4,0.2-0.3c0.3,0.1,1.2,0.5,1.4,0.8c0.3,0.3,0.4,0.3,0.7,0.2c0.4-0.2,0.7-0.6,0.7-1.2c0-0.6-0.2-1.7-0.6-2.1
		c-0.2-0.3-0.7-0.7-1.7-1.4c-0.5-0.4-0.7-0.7-0.5-0.8C368.7,678.9,369.2,678.9,369.6,679L369.6,679z M356.2,683.6
		c0.1,0,0.2,0.2,0.3,0.3c0.2,0.3,0.3,0.6,0.2,1.5c0,0.8-0.1,1-0.3,1.4c-0.3,0.5-0.4,0.6-1.4,1.3c-0.5,0.4-0.8,0.6-1.5,1.3
		c-0.3,0.3-0.6,0.6-0.8,0.7c-0.8,0.7-1.2,0.9-1.4,1.2c-0.1,0.1-0.3,0.3-0.3,0.3c-0.3,0.1-1.1,0.1-1.6-0.2c-0.2-0.1-0.3-0.1-0.6-0.1
		c-0.6,0-1.1,0.2-1.9,0.6c-0.7,0.4-1.2,0.6-1.6,0.4c-0.2,0-0.5-0.2-0.6-0.3c-0.1-0.2,0-0.5,0.1-0.6c0.1,0,0.7,0,0.9,0.1
		c0.3,0.1,0.6-0.1,0.9-0.5c0.1-0.1,0.3-0.2,0.6-0.4c0.3-0.1,0.6-0.3,0.6-0.4c0.1-0.1,0.6-0.8,0.6-0.9c0-0.1,0.5-0.8,0.7-1
		c0.2-0.3,0.7-0.5,0.8-0.5c0.1,0,0.1,0.4,0,0.7c0,0.1-0.1,0.4-0.2,0.7c-0.2,0.6-0.2,1-0.2,1.2c0,0.1,0.3,0.3,0.5,0.3
		c0.7,0,1.6-0.8,2.1-2c0.1-0.1,0.2-0.4,0.3-0.6c0.1-0.2,0.2-0.4,0.2-0.5c0.1-0.2,0.3-0.3,0.4-0.3c0,0,0.1,0.1,0.1,0.3
		c0,0.3,0,0.3,0.1,0.6c0.2,0.4,0.4,0.4,0.8,0.3c0.5-0.2,1-0.9,1.4-1.7c0.3-0.7,0.4-1,0.4-1.6c0-0.3-0.1-0.7-0.1-0.9l-0.1-0.4
		l0.1-0.2C355.9,683.6,356,683.5,356.2,683.6L356.2,683.6z M357.6,686.8c0.2,0.3,0.3,1.3,0.3,2.1c0,1-0.1,1.5-0.4,2.2
		c-0.3,0.8-0.7,1.3-1.3,1.9c-0.8,0.8-1.3,1.1-2.4,1.3c-0.4,0.1-0.8,0.2-0.9,0.2c-0.2,0.1-0.4,0.3-0.5,0.5c-0.1,0.3-0.3,0.5-0.7,0.7
		c-0.4,0.2-1.1,0.5-1.5,0.6c-0.4,0.1-1.4,0.4-1.8,0.4c-0.5,0.1-0.8,0.2-1.4,0.5c-1.2,0.5-1.5,0.6-2,0.6c-0.3,0-0.7-0.1-0.8-0.3
		c-0.1-0.1-0.3-0.2-0.5-0.3c-0.2-0.1-0.4-0.2-0.4-0.3c-0.1-0.1,0-0.4,0.1-0.5c0.1-0.1,0.1-0.1,0.2-0.1c0.1,0,0.2,0.1,0.3,0.2
		c0.4,0.4,0.7,0.5,1.2,0.4c0.2,0,0.4-0.1,0.5-0.2c0.2-0.2,1.6-1.6,1.8-1.8c0.2-0.3,0.3-0.5,0.4-0.6c0.2-0.4,0.6-0.8,0.9-0.8
		c0.2,0,0.2,0,0.1,0.2c-0.1,0.2-0.4,0.6-0.5,1c0,0.1-0.1,0.3-0.2,0.4c-0.1,0.2-0.1,0.3,0,0.4c0.1,0.2,0.3,0.3,0.7,0.3
		c0.4,0.1,0.9,0,1.2-0.1c0.7-0.3,1.6-1.2,2.2-2.1c0.7-1.1,0.9-1.4,1.1-2c0.2-0.6,0.2-0.6,0.4-0.8c0.2-0.2,0.3-0.2,0.3-0.1
		c0,0.2-0.1,1.2-0.2,1.5c-0.1,0.4-0.1,0.5,0,0.7l0.1,0.2l0.3,0c0.3,0,0.3,0,0.6-0.2c0.4-0.3,1-1.1,1.3-1.7c0.3-0.7,0.6-2.1,0.9-3.8
		C357.4,686.8,357.5,686.6,357.6,686.8L357.6,686.8z M384.5,647.2c0,0,0,0.3,0.1,0.5c0.1,0.6,0.2,0.5-0.4,0.9
		c-0.2,0.1-0.4,0.3-0.4,0.3c0,0.1,0.2,0.1,0.6,0.2c0.2,0,0.4,0,0.5,0.1c0,0,0.1,0.3,0.2,0.5c0.1,0.3,0.1,0.5,0.2,0.5
		c0.1,0.1,0.1,0,0.2-0.3c0.2-0.4,0.2-0.6,0.3-0.6c0,0,0.1-0.1,0.6-0.1c0.6,0,0.6,0,0.5-0.1c0,0-0.2-0.2-0.4-0.3
		c-0.3-0.2-0.4-0.3-0.4-0.4c0-0.1,0.1-0.3,0.1-0.5c0.2-0.6,0.2-0.7-0.3-0.3c-0.5,0.3-0.5,0.3-0.7,0.1c-0.1-0.1-0.3-0.2-0.4-0.3
		C384.6,647.1,384.5,647.1,384.5,647.2L384.5,647.2z M305.6,647.5c0,0-0.4,0.7-0.4,0.7c0,0-0.1,0.2-0.3,0.5
		c-0.1,0.3-0.3,0.5-0.3,0.6c-0.1,0.2-0.2,0.1,1.8,1.2c2.7,1.5,2.9,1.6,3.9,2.2c2.6,1.5,5.2,3,5.6,3.1c0.1,0.1,0.4,0.2,0.5,0.3
		c0.1,0.1,0.4,0.2,0.6,0.4c0.2,0.1,0.7,0.4,1,0.6c1.6,0.9,1.6,0.9,1.7,0.8c0.1-0.1,1.1-1.9,1-1.9c0,0-0.2-0.2-0.5-0.3
		c-0.3-0.2-0.6-0.3-0.7-0.4c-0.1-0.1-0.3-0.2-0.5-0.3c-0.5-0.3-0.8-0.4-0.9-0.5c-0.1,0-0.2-0.1-0.4-0.2c-0.6-0.3-0.9-0.5-1.7-0.9
		c-1.6-0.9-2.3-1.3-2.4-1.4c-0.1,0-0.4-0.2-0.7-0.4c-0.3-0.2-0.7-0.4-0.8-0.4s-0.4-0.2-0.7-0.4s-0.9-0.5-1.3-0.8s-0.9-0.5-1-0.6
		c-0.2-0.1-0.5-0.3-1.8-1C306.5,647.9,305.7,647.5,305.6,647.5C305.7,647.5,305.6,647.5,305.6,647.5L305.6,647.5z M335.2,648.2
		c-0.1,0-0.2,0.2-0.3,0.3c-0.4,0.4-0.4,0.4-0.9,0.1c-0.4-0.2-0.5-0.3-0.5-0.1c0,0,0.1,0.3,0.2,0.5l0.2,0.4l-0.4,0.4
		c-0.2,0.2-0.4,0.4-0.4,0.4c0,0,0.2,0,0.6,0l0.5,0l0.1,0.2c0,0.1,0.1,0.3,0.2,0.5c0.1,0.2,0.2,0.3,0.2,0.3c0.1,0.1,0.1-0.1,0.2-0.5
		c0-0.2,0.1-0.4,0.1-0.5c0-0.1,0.1-0.2,0.6-0.2c0.7-0.1,0.7-0.1-0.2-0.6c-0.1-0.1-0.2-0.1-0.2-0.2c0,0,0-0.1,0.1-0.6
		c0-0.1,0-0.3,0.1-0.4C335.5,648,335.4,648,335.2,648.2L335.2,648.2z M414.3,648.8c-0.2,0.1-1.2,0.6-1.8,0.9
		c-0.3,0.1-0.7,0.4-0.9,0.5c-0.3,0.1-0.5,0.3-0.6,0.4l-0.1,0.1l0.5,1c0.4,0.9,0.5,1,0.6,1c0.1,0,0.5-0.2,1.9-0.9
		c0.5-0.3,0.8-0.4,0.9-0.4c0.1,0,0.2,0.2,0.8,1.4l0.4,0.7l-0.1,0.1c0,0-0.5,0.3-0.9,0.5c-1.3,0.6-2.8,1.4-3,1.5
		c-0.1,0.1-0.6,0.3-1.2,0.7c-0.6,0.3-1.5,0.8-1.9,1c-3.4,1.8-4.7,2.4-4.7,2.4c-0.1,0-0.1-0.1-0.3-0.4c-0.4-0.8-0.8-1.6-0.8-1.7
		c0-0.1,0.2-0.2,1.7-1c1.2-0.6,1.7-0.9,1.8-0.9c0,0,0.1-0.1,0.1-0.1c0-0.1-0.7-1.6-0.9-1.8c0-0.1-0.1-0.1-0.1-0.1
		c-0.1,0-2.2,1.1-2.3,1.1c0,0-0.4,0.2-0.9,0.5c-1.1,0.6-1.3,0.7-1.5,1.1c-0.2,0.4-0.2,0.7-0.1,1.1c0,0.1,0.4,0.9,0.8,1.6
		c1.5,3,1.5,2.9,1.9,3.2c0.2,0.1,0.3,0.1,0.6,0.1c0.5,0,0.3,0.1,4.2-1.9c0.6-0.3,1.7-0.9,2.4-1.2c0.7-0.4,1.5-0.8,1.9-1
		c0.7-0.4,1.7-0.9,3.1-1.6c2.2-1.2,2.4-1.3,2.6-1.6c0.2-0.3,0.3-0.5,0.3-0.9l0-0.3l-1.1-2.2c-1.2-2.4-1.2-2.4-1.7-2.7
		c-0.2-0.1-0.3-0.1-0.6-0.1C414.6,648.8,414.4,648.8,414.3,648.8L414.3,648.8z M301.9,654.6c0,0-0.1,0.2-0.2,0.3
		c-0.2,0.7-0.9,2.4-1,2.6c0,0.1-0.2,0.4-0.3,0.7c-0.1,0.3-0.2,0.6-0.3,0.8c-0.4,1.1-0.5,1.3-0.5,1.7c0,0.4,0,0.6,0.3,0.8
		c0.2,0.3,0.5,0.4,1.7,0.9c0.6,0.2,1.5,0.6,2,0.8c0.6,0.2,1.3,0.5,1.6,0.6c1.4,0.6,1.7,0.6,2,0.6c0.5,0,1.1-0.4,1.3-0.9
		c0-0.1,0.1-0.2,0.1-0.2c0.1,0,0.3,0.2,0.6,0.4c0.1,0.1,0.6,0.4,1,0.7c0.7,0.5,1.3,0.9,1.7,1.2c0.1,0.1,0.4,0.3,0.6,0.4
		c0.2,0.2,0.8,0.6,1.3,1c1.4,1,1.4,1,1.4,1c0,0,0.1-0.2,0.2-0.4c0.5-1.3,0.7-1.7,0.7-1.8c0-0.1,0-0.1-0.3-0.4
		c-1-0.7-1.6-1.1-1.7-1.2c-0.1-0.1-0.4-0.3-0.5-0.4c-0.2-0.1-0.6-0.4-0.9-0.7c-0.3-0.2-0.7-0.5-0.7-0.5c-0.1-0.1-0.3-0.2-0.4-0.3
		c-0.2-0.2-0.5-0.4-2.3-1.6c-0.6-0.4-0.7-0.5-0.8-0.5c-0.2,0-0.7,0.1-0.7,0.1c0,0-0.1,0.3-0.2,0.5c-0.3,0.9-0.4,1-0.5,1
		c-0.1,0-0.9-0.3-2-0.7c-0.4-0.2-1.1-0.4-1.5-0.6c-0.9-0.4-1.2-0.5-1.4-0.6c-0.1,0-0.1-0.1,0.2-0.9c0-0.1,0.2-0.5,0.3-0.8
		c0.2-0.6,0.3-0.8,0.4-0.8c0,0,0.7,0.2,0.9,0.3c0.1,0,0.6,0.2,1.1,0.5c1,0.4,1.3,0.5,2.2,0.8c0.2,0.1,0.7,0.3,1.1,0.4
		c0.4,0.1,1,0.4,1.4,0.5c1.3,0.5,2.1,0.8,2.8,1.1c0.6,0.2,1.6,0.6,2.7,1c0.2,0.1,0.7,0.3,1.1,0.4s0.8,0.3,0.8,0.3
		c0.1,0,0.2-0.2,0.7-1.5c0.2-0.6,0.2-0.5-0.4-0.8c-0.3-0.1-1.1-0.4-1.7-0.7c-0.6-0.2-1.6-0.6-2.3-0.9c-2.1-0.8-2.6-1-3-1.2
		c-0.2-0.1-0.6-0.2-0.8-0.3c-0.6-0.2-2.7-1.1-3.3-1.3c-1.5-0.6-4.2-1.6-4.3-1.7C302,654.5,302,654.5,301.9,654.6L301.9,654.6z
		 M393.8,657.5c0,0-0.1,0.3-0.1,0.5s-0.1,0.5-0.1,0.6c0,0-0.3,0.1-0.5,0.2c-0.3,0.1-0.5,0.1-0.5,0.1c-0.1,0.1,0.1,0.2,0.4,0.3
		c0.2,0.1,0.4,0.2,0.5,0.2l0.1,0.1l0,0.5c0,0.3,0,0.5,0,0.6c0.1,0,0.1,0,0.4-0.4c0.2-0.2,0.3-0.3,0.4-0.3c0,0,0.3,0.1,0.5,0.1
		c0.2,0.1,0.5,0.1,0.5,0.1c0.1,0,0.1-0.1-0.1-0.4c-0.1-0.1-0.2-0.3-0.3-0.4c-0.1-0.2-0.1-0.2,0-0.3c0-0.1,0.1-0.1,0.2-0.2
		c0.1-0.1,0.4-0.5,0.4-0.5c0-0.1-0.1-0.1-0.6,0l-0.5,0.1l-0.1-0.1c-0.1-0.1-0.2-0.2-0.3-0.4C393.9,657.6,393.9,657.5,393.8,657.5
		L393.8,657.5z M326.2,659.1c-0.1,0.2-0.2,0.4-0.2,0.4c-0.1,0.2-0.1,0.2-0.6,0.1c-0.5-0.1-0.6-0.1-0.6,0c0,0,0.1,0.2,0.3,0.4
		l0.3,0.4l-0.2,0.5c-0.2,0.5-0.3,0.6-0.1,0.6c0,0,0.2-0.1,0.5-0.2c0.2-0.1,0.5-0.2,0.5-0.2c0,0,0.2,0.1,0.3,0.3
		c0.3,0.4,0.4,0.5,0.5,0.5c0,0,0.1,0,0-0.1c0-0.1-0.1-1,0-1c0,0,0.2-0.1,0.4-0.2c0.4-0.2,0.5-0.3,0.4-0.3c0,0-0.3-0.1-0.5-0.1
		c-0.2-0.1-0.5-0.1-0.5-0.1c0,0-0.1-0.2-0.1-0.4c-0.1-0.5-0.1-0.7-0.2-0.7C326.4,658.8,326.3,658.9,326.2,659.1L326.2,659.1z
		 M420,660c-0.1,0-0.4,0.1-0.7,0.2c-0.2,0.1-0.7,0.2-1.1,0.4c-0.4,0.1-1.2,0.4-1.9,0.6c-0.6,0.2-1.5,0.5-2,0.7
		c-0.5,0.1-1.1,0.3-1.3,0.4c-0.5,0.2-1.6,0.5-4.2,1.4c-0.7,0.2-1.6,0.5-2,0.6c-0.4,0.1-1,0.3-1.4,0.5c-1,0.3-1.3,0.4-1.4,0.5
		c-0.1,0.1-0.1,0.1,0.2,0.8c0.3,1.1,0.4,1.2,0.5,1.3c0.1,0,0.5-0.1,1-0.2c0.1,0,0.7-0.2,1.4-0.5s1.6-0.5,2.1-0.7
		c0.5-0.2,1.2-0.4,1.6-0.5c0.4-0.1,0.9-0.3,1-0.3c0.2-0.1,0.4-0.1,0.6-0.2c0.2-0.1,0.8-0.3,1.4-0.5c1.2-0.4,2.9-0.9,5-1.6
		c1.7-0.6,2.3-0.8,2.4-0.8c0,0,0-0.1,0-0.2c-0.1-0.5-0.6-1.8-0.6-1.9C420.5,659.9,420.3,659.9,420,660L420,660z M297.9,667.2
		c0,0.1-0.1,0.3-0.1,0.5c0,0.2-0.1,0.6-0.1,0.8c0,0.2-0.1,0.5-0.1,0.6c0,0.2-0.2,1.4-0.4,2.4c-0.2,1.1-0.2,1.1-0.1,1.2
		c0.1,0.1,1.7,0.3,1.8,0.3c0.1,0,0.1-0.2,0.2-0.8c0-0.3,0.1-0.6,0.1-0.8c0-0.2,0.1-0.5,0.1-0.8c0.1-0.8,0.1-0.8,0.3-0.8
		c0.1,0,0.9,0.1,1.8,0.3c0.3,0.1,1.2,0.2,1.8,0.3c1.8,0.3,1.6,0.3,1.6,0.4c0,0.1-0.2,1.1-0.4,2.6c-0.1,0.3,0,0.3,0,0.4
		c0,0,0.2,0.1,0.3,0.1c0.1,0,0.5,0.1,0.8,0.1c0.3,0.1,0.7,0.1,0.7,0.1c0.1,0,0.1-0.1,0.4-1.9c0.1-0.5,0.2-1,0.2-1.1
		c0,0,0.1-0.1,0.1-0.1c0.1,0,3,0.5,3.9,0.7c0.2,0,0.4,0.1,0.6,0.1c0.8,0.1,1.2,0.2,1.2,0.3c0,0,0,0.4-0.1,0.9
		c-0.3,1.7-0.4,2.3-0.4,2.3c0,0.1,0.1,0.1,0.6,0.2c0.2,0,0.5,0.1,0.8,0.1s0.5,0.1,0.5,0.1c0.1,0,0.1-0.2,0.3-1.2
		c0.1-0.5,0.2-0.9,0.2-1c0-0.1,0.1-0.3,0.1-0.4c0-0.2,0.1-0.4,0.2-1.3c0-0.2,0.1-0.6,0.2-1c0.1-0.6,0.1-0.7,0-0.7
		c-0.1-0.1-0.5-0.1-2.9-0.6c-0.9-0.1-1.8-0.3-2.1-0.4c-0.3-0.1-1-0.2-1.4-0.3c-1.5-0.3-2.3-0.4-3-0.5c-0.4-0.1-1.3-0.2-2.1-0.4
		c-0.8-0.1-1.6-0.3-1.7-0.3c-1.5-0.3-3.5-0.6-3.6-0.6C298,667.1,297.9,667.2,297.9,667.2L297.9,667.2z M420.7,667.2
		c-0.5,0.1-1.6,0.3-1.9,0.3c-0.3,0-1.3,0.2-3.6,0.6c-0.3,0-0.6,0.1-0.7,0.1c-0.3,0.1-0.6,0.3-0.7,0.5c-0.2,0.3-0.2,0.5-0.2,0.9
		l0,0.4l-0.1,0c-0.1,0-0.6-0.1-1.1-0.1c-0.5-0.1-1.7-0.2-2.6-0.3c-0.9-0.1-1.8-0.2-2-0.2c-0.2,0-0.7-0.1-1.2-0.1
		c-0.4,0-0.9-0.1-0.9-0.1c-0.3,0-0.3,0-0.2,1c0.2,1.1,0.2,1.5,0.3,1.5c0,0,0.2,0.1,0.4,0.1c0.2,0,1,0.1,1.9,0.2
		c0.8,0.1,1.8,0.2,2.1,0.2c0.7,0.1,1.6,0.1,2.9,0.3c0.6,0.1,1.3,0.1,1.7,0.1l0.6,0l0.2-0.1c0.1-0.1,0.3-0.2,0.3-0.3l0.1-0.1
		l-0.1-0.7c-0.1-0.7-0.1-0.9-0.1-1c0,0,0.2-0.1,0.5-0.1c0.3,0,0.8-0.1,1.1-0.2c0.7-0.1,0.8-0.1,1.6-0.3c0.3,0,0.7-0.1,0.8-0.1
		c0.9-0.1,1.2-0.2,1.2-0.1c0,0,0,0.2,0.1,0.4c0,0.2,0.1,0.8,0.2,1.3c0.1,0.7,0.1,0.9,0.1,1c0,0-0.3,0.1-0.7,0.2
		c-0.9,0.1-3,0.5-4.3,0.7c-0.3,0-1.1,0.2-1.6,0.3s-1.5,0.2-1.9,0.3c-0.5,0.1-0.9,0.1-1,0.2c-0.1,0-0.4,0.1-0.7,0.1s-0.6,0.1-0.8,0.1
		c-0.3,0.1-0.6,0.1-1.1,0.2c-0.2,0-0.6,0.1-1,0.2c-0.4,0.1-1,0.2-1.3,0.2c-0.4,0.1-0.6,0.1-0.7,0.2c-0.1,0.1-0.1,0.1,0,0.5
		c0,0.3,0.1,0.7,0.2,1c0,0.3,0.1,0.6,0.1,0.6c0.1,0.1,0.3,0.1,2.3-0.3c1.4-0.2,2.4-0.4,3.1-0.5c0.3,0,0.8-0.1,1.1-0.2
		c0.3-0.1,1-0.2,1.6-0.3c0.5-0.1,1.3-0.2,1.6-0.3c1.1-0.2,2-0.3,2.9-0.5c0.5-0.1,1-0.2,1.1-0.2c0.6-0.1,2.1-0.3,2.7-0.4
		c0.4-0.1,0.6-0.1,0.7-0.2c0.1-0.1,0.1-0.2-0.1-1.4c-0.2-1.5-0.5-3-0.6-3.5c-0.1-0.8-0.2-1.1-0.3-1.3c-0.1-0.2-0.4-0.5-0.6-0.6
		c-0.2-0.1-0.3-0.1-0.6-0.1C421.3,667.2,420.9,667.2,420.7,667.2L420.7,667.2z M400,670.8c0,0-0.1,0.2-0.2,0.4
		c-0.1,0.2-0.2,0.4-0.2,0.4c0,0-0.2,0-0.5,0c-0.7-0.1-0.7,0-0.2,0.4c0.2,0.2,0.3,0.3,0.4,0.4c0,0.1,0,0.1-0.1,0.3
		c-0.3,0.6-0.3,0.7-0.2,0.7c0.1,0,0.2,0,0.7-0.3c0.2-0.1,0.3-0.2,0.4-0.1c0,0,0.2,0.1,0.4,0.3c0.2,0.1,0.3,0.3,0.4,0.3
		c0.1,0.1,0.2,0,0.1-0.2c-0.1-0.8-0.1-0.8,0-0.9c0,0,0.2-0.2,0.4-0.3c0.2-0.1,0.3-0.2,0.3-0.2c0-0.1-0.1-0.1-0.5-0.2
		c-0.3,0-0.5-0.1-0.5-0.1c0,0-0.1-0.2-0.1-0.4C400.1,670.8,400.1,670.8,400,670.8C400,670.8,400,670.8,400,670.8L400,670.8z
		 M320.6,672.3c0,0-0.1,0.3-0.1,0.5c-0.1,0.3-0.1,0.5-0.1,0.5c0,0-0.3,0.1-0.5,0.1s-0.5,0.1-0.5,0.1c0,0,0.2,0.2,0.5,0.4
		c0.1,0.1,0.2,0.1,0.3,0.2c0.1,0.1,0.1,0.1,0.1,0.4c-0.1,0.7-0.1,0.8,0,0.8c0.1,0,0.3-0.1,0.5-0.4c0.1-0.1,0.2-0.2,0.3-0.2
		c0.1,0,0.2,0,0.5,0.2c0.2,0.1,0.5,0.2,0.5,0.2c0.1,0,0-0.1-0.2-0.7c-0.2-0.4-0.2-0.4,0.2-0.8c0.2-0.2,0.4-0.4,0.4-0.4
		c0-0.1,0-0.1-0.3,0c-0.1,0-0.4,0-0.6,0.1l-0.3,0l-0.2-0.5C320.7,672.2,320.6,672.2,320.6,672.3L320.6,672.3z M305.5,678.1
		c-7.9,0.2-7.9,0.2-8.1,0.3c-0.4,0.2-0.8,0.5-0.9,0.9c-0.1,0.2-0.1,2.6,0,4.2c0,0.8,0,0.9,0.1,1.1c0.2,0.4,0.6,0.8,1.1,0.9
		c0.3,0.1,3.7,0,3.9-0.1l0.1,0l0-1.1c0-0.9,0-1.1-0.1-1.1c-0.1,0-0.3-0.1-1.6,0c-1,0-1.5,0-1.5,0c0-0.1-0.1-2.5,0-2.5
		c0,0,0.9,0,2-0.1c1.1,0,2.2,0,2.6-0.1c1.7-0.1,3.8-0.1,6.1-0.1c2.2,0,2.6,0,2.6,0c0,0,0,0.6,0,1.3c0,1.1,0,1.2,0,1.2
		c0,0-0.8,0-1.8,0.1c-1.9,0-2.1,0-2.2,0.1c0,0-0.1,0.2,0,1.1c0,0.7,0,1,0.1,1.1c0,0,0.4,0.1,2.2,0c1.2,0,2.3,0,2.5-0.1
		c0.6-0.1,1-0.3,1.2-0.7l0.1-0.2v-1.1c0-1.6,0-3.3-0.1-3.8c0-0.3-0.1-0.5-0.1-0.6c-0.1-0.3-0.4-0.5-0.6-0.7l-0.2-0.1l-1.2,0
		C310.8,678,308.1,678,305.5,678.1L305.5,678.1z M406.8,679.4c-0.1,0-0.1,0.4-0.1,1.3c0,1.4-0.1,2.4-0.1,3.4c0,0.7,0,1,0,1.1
		c0,0,0.3,0.1,0.7,0.1c0.3,0,1,0,1.5,0.1c0.5,0,1.6,0.1,2.5,0.1c0.9,0,1.9,0.1,2.2,0.1c0.6,0,3.2,0.1,4.2,0.1c0.4,0,1,0,1.2,0.1
		c0.2,0,0.6,0,0.9,0c0.3,0,1.3,0,2.3,0.1c1.6,0.1,1.8,0.1,1.9,0c0-0.1,0.1-0.5,0.2-2.8c0.1-2.4,0.1-2.7,0-2.8c0,0-0.2-0.1-0.5-0.1
		c-0.5,0-1.4,0-1.4,0c0,0,0,0.4-0.1,0.8c-0.1,1.9-0.1,2.4-0.1,2.5c0,0.1-0.1,0.1-0.4,0.1c-0.2,0-0.8,0-1.2,0c-0.5,0-1.5-0.1-2.2-0.1
		s-1.4-0.1-1.5-0.1c-0.2,0-0.2-0.1-0.1-1.3c0.1-1.9,0.1-1.8,0-1.9c-0.1-0.1-1.8-0.1-1.8-0.1c0,0-0.1,0.4-0.1,1.4
		c0,0.8-0.1,1.5-0.1,1.6l0,0.2l-0.5,0c-0.2,0-1.5,0-2.9-0.1c-1.8-0.1-2.4-0.1-2.5-0.1c-0.1,0-0.1-0.1,0-0.6c0.1-1.4,0.1-2.6,0.1-2.7
		c0-0.1-0.1-0.1-0.1-0.1C408.4,679.4,406.8,679.4,406.8,679.4L406.8,679.4z M400.7,685.9c-0.2,0.2-0.4,0.4-0.4,0.4
		c0,0-0.2-0.1-0.5-0.2c-0.4-0.2-0.6-0.2-0.6-0.1c0,0,0.1,0.2,0.2,0.5c0.1,0.2,0.2,0.4,0.2,0.5c0,0-0.1,0.2-0.3,0.3
		c-0.3,0.3-0.4,0.5-0.4,0.5c0,0.1,0.2,0,0.6-0.1c0.5-0.1,0.5-0.1,0.8,0.3c0.3,0.4,0.4,0.5,0.4,0.5c0,0,0.1-0.3,0.1-0.5
		c0-0.3,0.1-0.5,0.1-0.5c0,0,0.3-0.1,0.5-0.1c0.5-0.1,0.6-0.2,0.4-0.3c0,0-0.3-0.1-0.5-0.2c-0.2-0.1-0.4-0.2-0.4-0.2
		c0,0,0-0.2,0-0.4c0.1-0.5,0.1-0.7,0-0.7C401,685.5,400.8,685.7,400.7,685.9L400.7,685.9z M320.1,687.1c0,0,0,0.1,0,0.5
		c0,0.3,0,0.5,0,0.5c0,0.1-0.1,0.1-0.4,0.3c-0.2,0.1-0.4,0.2-0.4,0.2c-0.1,0.1,0,0.1,0.4,0.2c0.6,0.1,0.6,0.1,0.6,0.2
		c0,0.1,0.1,0.3,0.1,0.5c0.1,0.6,0.1,0.6,0.4,0c0.1-0.2,0.2-0.4,0.2-0.4l0.1-0.1l0.5,0.1c0.4,0.1,0.5,0.1,0.6,0c0,0,0-0.1-0.5-0.6
		c-0.3-0.3-0.3-0.3,0-0.8c0.2-0.4,0.3-0.5,0.2-0.5c0,0-0.3,0.1-0.5,0.2c-0.2,0.1-0.4,0.2-0.5,0.2c0,0-0.2-0.1-0.3-0.3
		C320.2,687.1,320.1,687,320.1,687.1L320.1,687.1z M406.4,688.2c-0.1,0.1-0.1,0.4-0.4,1.4c-0.1,0.5-0.1,0.6-0.1,0.6
		c0.1,0.1,0.2,0.1,1.2,0.4c0.4,0.1,0.9,0.2,1.1,0.3c0.3,0.1,0.8,0.2,1.2,0.3c0.4,0.1,0.8,0.2,0.9,0.3c0.2,0,0.5,0.1,0.7,0.2
		s0.6,0.1,0.7,0.2c0.2,0.1,0.8,0.2,1.3,0.4c0.5,0.1,1,0.3,1,0.3c0.1,0,0.1,0.1-0.2,0.1c-0.2,0-1.8,0-3.6,0c-1.8,0-3.4,0-3.4,0
		c-0.1,0.1-0.2,0.6-0.2,0.7c0,0.1,0.5,0.3,2,1.2c0.4,0.2,0.8,0.5,0.9,0.5c0.1,0.1,0.7,0.4,1.3,0.7c1.2,0.7,1.8,1,1.9,1.1l0.1,0.1
		h-0.1c-0.1,0-0.9-0.2-1.8-0.5c-0.4-0.1-2-0.5-3.2-0.9c-1.7-0.5-1.9-0.5-2.2-0.6c-0.7-0.2-0.9-0.3-1-0.2c-0.1,0.1-0.1,0.2-0.4,1.2
		c-0.3,1-0.3,0.9,0.4,1.1c0.2,0.1,0.7,0.2,1,0.3c0.7,0.2,1.5,0.4,2.5,0.7c0.4,0.1,1,0.3,1.3,0.3s1,0.3,1.5,0.4s1.4,0.4,1.8,0.5
		s1.1,0.3,1.4,0.4c0.3,0.1,0.8,0.2,1.3,0.3c0.9,0.2,2.1,0.6,4,1.1c1.2,0.3,1.3,0.3,1.4,0.3c0.1-0.1,0.5-1.5,0.4-1.6
		c0-0.1-0.3-0.3-0.8-0.6c-0.1-0.1-0.4-0.2-0.6-0.4c-0.2-0.1-0.5-0.3-0.6-0.4c-0.1-0.1-0.3-0.2-0.4-0.3c-0.3-0.2-1.3-0.9-1.7-1.1
		c-0.2-0.1-0.5-0.3-0.7-0.4c-0.2-0.1-0.7-0.4-1.1-0.7c-2-1.3-2-1.3-2-1.4c0-0.1,0-0.1,0.1-0.1c0,0,1.7-0.1,3.7-0.2
		c5.5-0.2,5.7-0.2,5.8-0.3c0,0,0.4-1.1,0.4-1.4c0-0.2-0.1-0.2-0.7-0.4c-0.3-0.1-0.9-0.2-1.4-0.4s-1.3-0.3-1.6-0.4
		c-0.4-0.1-0.9-0.3-1.3-0.3s-0.9-0.2-1.2-0.3c-0.3-0.1-1-0.3-1.6-0.4c-0.5-0.1-1.3-0.3-1.6-0.4c-0.3-0.1-0.9-0.3-1.3-0.4
		c-0.4-0.1-1.1-0.3-1.4-0.4c-0.4-0.1-1.2-0.3-1.8-0.5s-1.3-0.4-1.6-0.4c-0.3-0.1-0.6-0.2-0.7-0.2
		C406.5,688.1,406.4,688.1,406.4,688.2L406.4,688.2z M313.3,688.5c-0.4,0.1-1.1,0.2-1.5,0.3c-0.4,0.1-1.3,0.2-2,0.3
		c-0.7,0.1-1.5,0.3-1.9,0.3c-0.4,0.1-1.3,0.2-2,0.4s-1.7,0.3-2.3,0.4s-1.5,0.3-2.1,0.4c-0.6,0.1-1.4,0.2-1.6,0.3
		c-0.6,0.1-0.7,0.1-0.7,0c0-0.1-0.1-0.3-0.1-0.6c-0.3-1.6-0.3-1.7-0.5-1.6c-0.1,0-0.3,0.1-0.5,0.1c-1.1,0.2-1.2,0.2-1.2,0.4
		c0,0.1,0.1,1,0.3,1.9c0.1,0.3,0.2,1.1,0.3,1.7c0.4,2.1,0.6,3.2,0.6,3.2c0,0,0.5,0,1.5-0.2c0.2,0,0.3-0.1,0.3-0.1
		c0.1,0,0-0.3-0.1-1.2c-0.2-1.1-0.2-1.2-0.1-1.2c0,0,1.2-0.2,2.4-0.4c0.3-0.1,0.7-0.1,0.9-0.2c0.2,0,0.8-0.1,1.5-0.3
		c0.7-0.1,1.7-0.3,2.4-0.4s1.6-0.3,2.1-0.4c1.2-0.2,2.6-0.5,3.5-0.6c0.4-0.1,1.1-0.2,1.4-0.3c0.4-0.1,0.7-0.1,0.7-0.2
		c0.1-0.1,0-0.2-0.1-1c-0.1-0.5-0.2-1-0.2-1.1C314.3,688.3,314.3,688.3,313.3,688.5L313.3,688.5z M314.2,694.6
		c-0.1,0-0.2,0.1-0.3,0.1c0,0-0.2,0.1-0.5,0.2c-0.2,0.1-0.6,0.2-1,0.4c-0.3,0.1-0.8,0.3-1,0.4c-0.6,0.2-2.2,0.8-2.7,1
		c-0.2,0.1-0.8,0.3-1.3,0.5c-1.5,0.6-2.4,0.9-3.1,1.2c-0.3,0.1-0.9,0.4-1.3,0.5c-0.4,0.1-0.9,0.4-1.3,0.5c-0.3,0.1-0.7,0.3-0.9,0.3
		c-0.6,0.2-0.9,0.4-1.1,0.9c-0.1,0.2-0.1,0.2-0.1,0.6l0,0.4l0.5,1.3c0.3,0.7,0.6,1.5,0.6,1.6c0.2,0.7,0.4,1.1,0.5,1.4
		c0.3,0.7,0.6,1.1,1.2,1.2c0.4,0.1,0.5,0,2.2-0.6c0.4-0.2,0.9-0.4,1.1-0.4c0.2-0.1,0.5-0.2,0.8-0.3c0.3-0.1,0.8-0.3,1.2-0.5
		c0.4-0.1,1-0.4,1.3-0.5s0.8-0.3,1-0.4s0.7-0.3,1-0.4c1.3-0.5,4-1.5,5-1.9c0.4-0.1,0.7-0.3,0.8-0.3c0.4-0.2,0.7-0.7,0.8-1.2
		c0-0.3,0-0.5-0.5-1.6c-0.2-0.4-0.4-0.9-0.5-1.2c-0.1-0.3-0.2-0.6-0.3-0.7c-0.1-0.2-0.2-0.6-0.5-1.4c-0.1-0.3-0.2-0.4-0.4-0.6
		C315.3,694.6,314.7,694.4,314.2,694.6L314.2,694.6z M314.4,697.1c0.1,0.1,1,2.5,1,2.6c0,0.2,0.2,0.1-3.2,1.4
		c-0.4,0.2-0.9,0.4-1.1,0.4c-0.2,0.1-1.7,0.7-2.9,1.1c-0.2,0.1-0.6,0.2-0.9,0.4c-1.9,0.7-3,1.2-3.3,1.3c-0.2,0.1-0.4,0.2-0.6,0.2
		c-0.1,0.1-0.3,0.1-0.4,0.1c-0.2,0-0.1,0-0.6-1.1c-0.2-0.5-0.4-1-0.5-1.2c-0.1-0.3-0.2-0.5-0.1-0.5c0,0,0.2-0.1,0.4-0.1
		s0.7-0.3,1-0.4c0.4-0.1,0.9-0.3,1.1-0.4c0.2-0.1,0.6-0.2,0.8-0.3c0.2-0.1,0.7-0.3,1-0.4c0.6-0.2,1.4-0.6,1.9-0.7
		c0.3-0.1,0.6-0.2,1.9-0.7c0.1-0.1,0.5-0.2,0.8-0.3c0.3-0.1,0.6-0.3,0.8-0.3c0.1-0.1,0.5-0.2,0.7-0.3c1.5-0.6,2-0.8,2-0.8
		C314.3,697,314.4,697.1,314.4,697.1L314.4,697.1z M395.5,698.7c0,0,0,0.1,0,0.5c0,0.3,0,0.5,0,0.5c0,0-0.2,0.1-0.5,0.2
		c-0.5,0.2-0.6,0.3-0.5,0.3c0.1,0,0.3,0.1,0.5,0.1c0.2,0,0.5,0.1,0.5,0.1c0,0,0.1,0.3,0.1,0.6c0.1,0.4,0.1,0.5,0.1,0.5
		c0.1,0,0.1-0.1,0.4-0.6c0.2-0.3,0.2-0.3,0.7-0.2c0.5,0.1,0.6,0.1,0.6,0c0,0-0.2-0.2-0.3-0.4c-0.4-0.4-0.4-0.4-0.1-0.9
		c0.1-0.2,0.2-0.4,0.2-0.4c0-0.1-0.1-0.1-0.6,0.1c-0.2,0.1-0.4,0.2-0.5,0.2s-0.2-0.1-0.3-0.3C395.8,698.8,395.6,698.7,395.5,698.7
		L395.5,698.7z M403.3,699.2c-0.1,0.2-0.9,1.5-1,1.7c0,0.1,0,0.1,0.1,0.3c0.2,0.2,0.5,0.4,1.5,1.2c0.7,0.5,0.9,0.7,0.9,0.8
		c0,0,0,0.2-0.1,0.3c-0.1,0.1-0.3,0.6-0.6,1.1c-0.6,1.2-0.7,1.2-0.8,1.2c0,0-0.5-0.1-1-0.3c-0.5-0.2-1-0.4-1.1-0.4
		c-0.1,0-0.3-0.1-0.5-0.2c-0.4-0.2-0.5-0.2-0.6,0c-0.5,0.9-0.9,1.7-0.9,1.7c0,0.1,0,0.1,0.2,0.1c0.3,0.1,1.8,0.6,2.7,0.9
		c1.2,0.4,2.5,0.8,3.4,1.2c0.4,0.2,1.2,0.4,1.6,0.6c0.5,0.2,1.4,0.5,2,0.7s1.6,0.5,2.1,0.7s1.7,0.6,2.7,0.9s1.9,0.6,1.9,0.6
		c0,0,0.2-0.2,0.3-0.5c0.2-0.3,0.3-0.6,0.3-0.6c0.3-0.6,0.4-0.9,0.4-1c0-0.1-0.5-0.5-1.3-1.2c-0.1-0.1-0.5-0.4-0.8-0.7
		s-0.7-0.6-0.9-0.8s-0.7-0.5-0.9-0.8c-1.5-1.2-2.9-2.4-4.9-4.1c-0.3-0.2-0.5-0.4-0.5-0.4c0,0-0.2-0.1-0.3-0.3
		c-0.2-0.1-0.5-0.4-0.6-0.5c-0.4-0.3-0.7-0.5-1.2-1c-0.3-0.2-0.8-0.6-0.8-0.7c0,0-0.2-0.1-0.3-0.3C403.4,699,403.4,699,403.3,699.2
		L403.3,699.2z M407.3,705.1c0.4,0.3,0.9,0.7,1.1,0.9s0.5,0.4,0.5,0.4c0,0,0.7,0.5,1.5,1.3c1.1,0.9,1.2,1,1,1c-0.1,0-1-0.3-2.8-0.9
		c-3.5-1.2-3.3-1.1-3.3-1.3c0,0,0.2-0.3,0.3-0.6c0.2-0.3,0.4-0.7,0.5-0.9c0.2-0.3,0.3-0.4,0.3-0.4
		C406.6,704.5,406.9,704.8,407.3,705.1z M325.7,700.2c-0.1,0.1-0.3,0.3-0.4,0.4l-0.2,0.2l-0.5-0.2c-0.2-0.1-0.5-0.2-0.5-0.2
		c-0.1,0-0.1,0.1,0.2,0.5c0.3,0.5,0.3,0.4-0.1,0.9c-0.4,0.5-0.4,0.5,0.3,0.3c0.3-0.1,0.5-0.1,0.5-0.1c0,0,0.2,0.2,0.3,0.4
		c0.2,0.4,0.4,0.5,0.4,0.3c0,0,0-0.3,0.1-0.5c0.1-0.5,0.1-0.5,0.5-0.6c0.9-0.2,0.9-0.2,0.2-0.5l-0.5-0.2l0-0.6c0-0.5,0-0.6-0.1-0.6
		C326,700,325.9,700.1,325.7,700.2L325.7,700.2z M318.7,703.6c-0.5,0.3-1.2,0.8-2.5,1.6c-0.5,0.3-1.3,0.9-1.8,1.2s-1.1,0.7-1.2,0.8
		c-0.2,0.1-0.5,0.3-0.8,0.5s-0.9,0.6-1.4,0.9c-0.5,0.3-1,0.7-1.2,0.8c-0.3,0.2-1.4,0.9-1.7,1.1c-0.1,0.1-0.7,0.5-1.3,0.9
		c-0.6,0.4-1.1,0.7-1.2,0.8c-0.1,0-0.3,0.2-0.5,0.4c-0.2,0.1-0.4,0.3-0.4,0.3c0,0,0.1,0.2,1,1.6c0.3,0.4,0.8,1.3,1.1,1.8
		c1,1.6,1.1,1.8,1.3,2c0.3,0.3,0.4,0.3,0.8,0.3c0.6,0,0.3,0.2,3.4-1.9c0.7-0.5,1.3-0.9,1.4-0.9c0.1-0.1,0.5-0.3,0.9-0.6
		s0.8-0.6,0.9-0.7c0.5-0.5,0.5-1.1,0.2-1.8c-0.1-0.2-0.1-0.2,0-0.2c0,0,1.1-0.4,2.5-0.9c4.3-1.4,5.2-1.7,5.2-1.8
		c0-0.1-0.1-0.2-0.9-1.6c-0.3-0.4-0.3-0.5-0.4-0.5c-0.1,0-0.4,0.1-2.4,0.8c-1.3,0.5-2.2,0.8-2.9,1c-0.4,0.1-2.1,0.7-3.1,1.1
		c-0.3,0.1-0.6,0.2-0.6,0.3c-0.1,0.1-0.4,0.6-0.4,0.7c0,0.1,0.1,0.3,0.3,0.5c0.5,0.8,0.6,0.9,0.6,1c0,0.1-3.8,2.7-4.3,2.9
		c-0.1,0.1-0.2,0.1-0.2,0.1c-0.1,0-0.2-0.3-0.5-0.8c-0.2-0.2-0.4-0.6-0.5-0.9c-0.4-0.7-0.4-0.6,0.2-1c0.3-0.2,0.6-0.4,0.7-0.5
		c0.1,0,0.7-0.5,1.5-1c0.7-0.5,2-1.3,2.7-1.8c0.7-0.5,1.7-1.1,2.1-1.4c0.4-0.3,0.9-0.6,0.9-0.6c0.1-0.1,0.2-0.2,0.3-0.2
		c0.1-0.1,0.7-0.4,1.3-0.9s1.3-0.9,1.5-1c0.2-0.1,0.4-0.3,0.5-0.3c0.1,0,0.3-0.2,0.4-0.3c0.2-0.1,0.3-0.2,0.3-0.3
		c0-0.1-0.1-0.3-0.3-0.6c-0.1-0.2-0.3-0.5-0.5-0.7c-0.3-0.4-0.3-0.5-0.4-0.5C319.1,703.3,318.9,703.5,318.7,703.6L318.7,703.6z
		 M324.3,712c-0.4,0.1-0.5,0.2-2.3,2c-1.5,1.5-1.7,1.7-1.6,1.8c0,0,0.2,0.2,0.4,0.5c0.7,0.8,1.1,1.1,1.1,1.1c0.1,0,0.7-0.6,2.1-2
		c0.4-0.4,0.7-0.7,0.8-0.7c0,0,0.2,0.1,0.4,0.3c0.3,0.3,0.8,0.9,0.9,1c0,0-0.6,0.6-1.3,1.4c-1,1-1.4,1.4-1.5,1.4
		c-0.1,0-2.5,0.4-3.9,0.7c-1.1,0.2-2.5,0.4-2.7,0.5c-0.5,0.1-0.6,0.2-1.9,1.5c-1.7,1.7-1.7,1.7-1.8,2c-0.2,0.5-0.2,1,0.1,1.4
		c0,0.1,0.7,0.8,1.5,1.6c1.6,1.7,1.6,1.7,2.2,1.7c0.6,0,0.7-0.1,2.9-2.3c0.3-0.3,0.6-0.7,0.6-0.7c0-0.1-1.4-1.6-1.5-1.6
		c0,0-0.3,0.3-0.7,0.6c-1.2,1.2-1.5,1.5-1.6,1.5c-0.1,0-1.2-1.2-1.2-1.3c0-0.1,1.9-2,2.1-2.1c0,0,0.2-0.1,0.4-0.1
		c0.3-0.1,2.4-0.4,3.7-0.6c1.1-0.2,2-0.3,2.4-0.4c0.5-0.1,0.8-0.3,1.2-0.7c0.4-0.4,2.5-2.5,2.9-2.8c0.5-0.5,0.8-1.1,0.6-1.6
		c-0.1-0.4-0.2-0.5-1-1.3c-0.4-0.5-1.1-1.1-1.4-1.5c-0.3-0.3-0.7-0.7-0.7-0.7C325.1,712,324.7,711.9,324.3,712L324.3,712z
		 M392,715.2c-0.2,0.2-1.4,1.4-1.4,1.5c0,0,0.1,0.2,0.3,0.4s0.4,0.4,0.5,0.5c0.1,0.1,0.6,0.7,1.1,1.2c0.5,0.6,1.2,1.3,1.5,1.6
		s1.5,1.6,2.7,2.8c2.2,2.3,2.4,2.5,4.2,4.4c0.6,0.6,1.2,1.2,1.3,1.4c0.2,0.2,0.3,0.3,0.3,0.3c0.1,0,0.5-0.4,1.3-1.2
		c2.4-2.4,2.7-2.6,2.7-2.7c0,0-0.2-0.3-0.5-0.7c-0.6-0.6-0.7-0.7-0.8-0.7c0,0-0.6,0.5-1.2,1.1c-0.6,0.6-1.1,1.1-1.2,1.1
		c0,0-0.7-0.7-1.6-1.6c-2-2.1-2.2-2.3-2.2-2.4c0,0,0.5-0.5,1.1-1.1c0.6-0.6,1.1-1.1,1.1-1.1c0-0.1-1.2-1.4-1.3-1.4
		c-0.1,0-0.5,0.4-1.1,1c-0.6,0.6-1.1,1-1.1,1c0,0-1.6-1.6-2.6-2.7c-0.3-0.3-0.8-0.8-1.1-1.1s-0.8-0.8-1.1-1.2
		c-0.3-0.3-0.6-0.6-0.6-0.6C392.2,715.1,392.1,715.1,392,715.2L392,715.2z M346,717.6c0,0.1,0,0.3,0,0.5c0,0.5,0,0.5-0.6,0.7
		c-0.4,0.1-0.5,0.2-0.4,0.3c0,0,0.2,0.1,0.4,0.2c0.5,0.2,0.5,0.2,0.5,0.5c0,0.3,0,0.9,0.1,0.9c0,0,0.2-0.2,0.4-0.4s0.3-0.4,0.4-0.4
		c0,0,0.3,0,0.5,0.1c0.4,0.1,0.6,0.2,0.6,0.1c0,0-0.1-0.2-0.3-0.5c-0.2-0.3-0.3-0.5-0.3-0.5c0,0,0.1-0.2,0.3-0.4
		c0.2-0.2,0.3-0.4,0.3-0.5c0-0.1-0.1-0.1-0.6,0c-0.6,0.2-0.5,0.2-1-0.5C346.1,717.5,346,717.4,346,717.6L346,717.6z M373.5,718.5
		c-0.1,0.1-0.2,0.3-0.3,0.4c-0.1,0.2-0.2,0.3-0.3,0.3c-0.1,0-0.3,0-0.5-0.1c-0.4-0.1-0.5-0.2-0.5-0.1c0,0,0.1,0.2,0.3,0.4
		c0.1,0.2,0.3,0.4,0.3,0.4c0,0.1-0.1,0.3-0.4,0.8c-0.2,0.3-0.2,0.3,0.1,0.3c0.1,0,0.3-0.1,0.5-0.1c0.1,0,0.3-0.1,0.3-0.1
		c0,0,0.2,0.2,0.4,0.4c0.2,0.2,0.3,0.4,0.4,0.4c0.1,0,0.1,0,0.1-0.5c0-0.2,0-0.5,0-0.5c0-0.1,0.2-0.1,0.7-0.3
		c0.2-0.1,0.3-0.2,0.3-0.2c0,0-0.2-0.1-0.5-0.2c-0.3-0.1-0.5-0.2-0.5-0.2c0,0-0.1-0.2-0.1-0.5C373.8,718.3,373.8,718.2,373.5,718.5
		L373.5,718.5z M388.2,718.7c-0.4,0.1-0.4,0.1-2.3,1.5c-0.3,0.2-0.9,0.6-1.4,0.9c-1.1,0.7-1.3,0.9-1.4,1.4c-0.1,0.3-0.1,0.6,0,0.8
		c0.1,0.2,0.8,1.3,2.7,4.2c0.3,0.5,1.7,2.5,3,4.6s2.6,3.8,2.7,3.9c0.2,0.3,0.6,0.4,0.9,0.4c0.4,0,0.7-0.1,1.2-0.4
		c1.7-1.1,2.1-1.4,2.8-1.9c1.1-0.7,1.1-0.7,1.2-1c0.3-0.5,0.4-0.8,0.2-1.3c-0.1-0.3-0.2-0.5-2.4-3.8c-2.2-3.3-2.9-4.3-3.7-5.6
		c-0.5-0.8-1-1.6-1.1-1.7c-0.1-0.1-0.3-0.5-0.5-0.8c-0.7-1.1-0.8-1.2-1.3-1.3C388.6,718.6,388.4,718.6,388.2,718.7L388.2,718.7z
		 M389,722.5c0.5,0.7,1.4,2.2,2.1,3.1c2.8,4.2,4.4,6.7,4.4,6.7c0,0-0.3,0.3-0.6,0.5c-0.1,0.1-0.4,0.2-0.5,0.4
		c-0.4,0.3-1.3,0.8-1.3,0.8c-0.1,0-0.1-0.1-1-1.5c-0.5-0.7-0.9-1.3-1-1.5c-0.1-0.1-0.3-0.5-0.5-0.8c-0.2-0.3-0.7-1-1.1-1.6
		c-0.4-0.6-1.1-1.7-1.6-2.5c-0.5-0.8-1.2-1.8-1.5-2.3c-0.8-1.2-0.7-1.1-0.6-1.2c0.1-0.1,0.2-0.2,0.4-0.3s0.4-0.3,0.6-0.4
		c0.6-0.4,1.4-0.9,1.4-0.9C388.1,721.1,388.5,721.7,389,722.5L389,722.5z M358.8,720.6c0,0,0,0.2,0.1,0.5c0.2,0.6,0.2,0.6-0.2,0.9
		c-0.7,0.5-0.7,0.5-0.2,0.5c0.5,0,0.7,0.1,0.7,0.1c0,0,0.1,0.2,0.1,0.4c0.1,0.5,0.2,0.6,0.2,0.6c0.1,0,0.2-0.3,0.3-0.8
		c0.1-0.2,0.1-0.2,0.7-0.2c0.6,0,0.6,0,0.2-0.4c-0.2-0.2-0.4-0.3-0.4-0.4c0-0.1,0-0.1,0.1-0.6c0.2-0.5,0.2-0.6,0.1-0.6
		c0,0-0.2,0.1-0.5,0.3s-0.4,0.3-0.5,0.3c0,0-0.2-0.1-0.4-0.3C359.1,720.7,358.9,720.5,358.8,720.6
		C358.9,720.5,358.8,720.6,358.8,720.6L358.8,720.6z M336.8,722.1c-0.3,0.1-0.6,0.3-0.8,0.6c-0.1,0.2-0.4,0.8-1.9,3.7
		c-0.5,1-1,1.9-1,2c-0.1,0.2-0.7,1.3-1.3,2.6c-0.6,1.2-1.5,2.9-1.9,3.7s-0.7,1.5-0.8,1.6c0,0.1-0.1,0.3-0.1,0.5c0,0.3,0,0.3,0.1,0.6
		c0.2,0.4,0.3,0.5,1.2,0.9c0.3,0.2,0.7,0.4,0.9,0.5c0.2,0.1,0.6,0.3,1,0.5s0.8,0.4,1,0.5c0.7,0.4,1.1,0.4,1.6,0.2
		c0.3-0.2,0.5-0.4,1-1.4c1.2-2.3,1.3-2.6,1.3-2.7c0-0.1-0.1-0.1-0.1-0.2c-0.2-0.1-1.7-0.9-1.8-0.9c-0.1,0-0.3,0.4-0.8,1.3
		c-0.5,1.1-0.8,1.5-0.8,1.6c0,0-0.2-0.1-0.4-0.2c-0.2-0.1-0.6-0.3-0.9-0.5c-0.3-0.2-0.6-0.3-0.7-0.4l-0.1-0.1l0.4-0.8
		c0.2-0.5,0.8-1.6,1.3-2.6c0.5-1,1.1-2.2,1.4-2.7c0.8-1.7,2.9-5.8,3-5.9c0,0,0.1-0.1,0.1-0.1c0.1,0,2,1,2,1.1c0,0.1-0.2,0.5-1.2,2.5
		c-1,2.1-1,2-1.1,2c0,0-0.2-0.1-0.5-0.2c-0.4-0.2-0.5-0.2-0.6-0.2c-0.1,0.1-0.8,1.6-0.8,1.6c0,0.1,0.5,0.4,1.4,0.8
		c0.4,0.2,0.9,0.4,1.1,0.6c0.3,0.1,0.5,0.2,0.5,0.2c0.1,0,0,0.1,1.1-2c2-4,2.5-4.9,2.6-5.2c0.2-0.6,0-1.1-0.5-1.4
		c-0.1-0.1-0.8-0.4-1.5-0.8s-1.4-0.7-1.6-0.8c-0.1-0.1-0.5-0.3-0.8-0.4c-0.4-0.2-0.5-0.2-0.8-0.2
		C337.1,722.1,336.9,722.1,336.8,722.1L336.8,722.1z M344.9,725.8c-0.2,0.1-0.5,0.3-0.6,0.5c-0.2,0.3-0.2,0.4-0.4,1
		c-0.5,1.9-0.7,2.7-0.9,3.6c-0.1,0.2-0.1,0.5-0.2,0.7c0,0.2-0.1,0.4-0.1,0.4c0,0.2-0.4,1.6-0.5,1.8c0,0.1-0.1,0.4-0.2,0.6
		c-0.1,0.3-0.2,0.6-0.2,0.8c-0.1,0.4-0.3,1.3-0.4,1.6c0,0.1-0.1,0.4-0.2,0.6c-0.1,0.2-0.2,0.7-0.3,1s-0.2,0.9-0.3,1.2
		c-0.2,0.7-0.3,1.2-0.5,2c0,0.1-0.1,0.3-0.1,0.3s0,0.2,0,0.3c0,0.2,0,0.2,0.1,0.3c0.2,0.1,1.8,0.5,1.9,0.5c0.1,0,0.2-0.1,0.2-0.3
		c0-0.1,0.1-0.3,0.1-0.5c0.2-0.8,0.7-2.7,0.9-3.2c0.1-0.3,0.2-0.6,0.2-0.7c0-0.1,0.1-0.5,0.2-0.8c0.2-0.6,0.2-0.6,0.3-1.1
		c0-0.2,0.1-0.5,0.2-0.7c0.1-0.4,0.2-0.7,0.5-1.8c0.1-0.4,0.3-1,0.3-1.2c0.1-0.2,0.1-0.5,0.2-0.6c0.1-0.2,0.5-1.7,0.8-3
		c0.2-0.8,0.2-0.9,0.3-1c0-0.1,0.1-0.1,0.1-0.1c0.1,0,2.5,0.6,2.6,0.7c0,0,0,0.1,0,0.3c-0.1,0.2-0.3,1.3-0.4,1.6
		c-0.3,1-1,3.7-1.1,4.2c-0.1,0.2-0.1,0.5-0.2,0.6c-0.1,0.2-0.4,1.6-0.5,1.9c-0.1,0.3-0.3,1-0.3,1.2c-0.1,0.2-0.4,1.5-0.5,2
		c-0.1,0.3-0.2,0.9-0.4,1.4c-0.2,0.8-0.4,1.6-0.4,1.7c0,0.1,0,0.1,0.1,0.2c0.1,0.1,2,0.6,2.1,0.5c0.1,0,0.1-0.2,0.2-0.7
		c0.1-0.4,0.4-1.4,0.6-2.1c0.1-0.2,0.2-0.6,0.2-0.8c0.3-1.1,0.4-1.4,0.6-2.3c0.1-0.5,0.3-1.1,0.3-1.3c0-0.2,0.1-0.4,0.2-0.6
		c0.1-0.4,0.4-1.6,0.8-3c0.2-0.6,0.3-1.2,0.3-1.3c0.1-0.5,0.3-1,0.3-1.3c0-0.2,0.2-0.6,0.3-1c0.3-1.2,0.4-1.3,0.3-1.7
		c0-0.2,0-0.4-0.1-0.5c-0.1-0.2-0.4-0.5-0.6-0.6c-0.1-0.1-1.2-0.4-3.4-1c-0.4-0.1-0.9-0.2-1-0.3
		C345.8,725.7,345.1,725.7,344.9,725.8L344.9,725.8z M370.4,726.9c-0.2,0-0.5,0.1-0.8,0.1c-0.3,0.1-0.9,0.2-1.3,0.3
		c-0.9,0.2-1.7,0.4-2,0.4c-0.1,0-0.2,0.1-0.2,0.1c0,0,0,0.3,0.1,0.6c0.1,0.3,0.1,0.7,0.2,0.9c0.1,0.7,0.5,2.3,0.5,2.7
		c0,0.2,0.2,0.8,0.3,1.3c0.1,0.5,0.2,1,0.2,1.1c0,0.1,0.1,0.5,0.2,1c0.1,0.4,0.2,1,0.2,1.2c0,0.2,0.1,0.7,0.2,1.1
		c0.2,0.8,0.5,2.2,0.8,3.8c0.5,2.2,0.7,3.4,0.7,3.5c0,0.2,0.1,0.2,0.8,0.1c1.7-0.4,3.4-0.7,3.6-0.8c0.8-0.3,1.5-0.9,1.8-1.5
		c0.4-0.7,0.4-1.3,0.2-2.4c-0.1-0.4-0.2-0.9-0.2-1.1c0-0.2-0.2-1.1-0.4-1.9c-0.2-0.8-0.4-2-0.5-2.6c-0.1-0.6-0.3-1.4-0.4-1.7
		s-0.2-0.8-0.2-1s-0.1-0.7-0.2-1c-0.1-0.3-0.2-0.9-0.3-1.3c-0.1-0.4-0.2-0.9-0.3-1c-0.4-1-1.2-1.6-2.3-1.7
		C370.8,726.9,370.8,726.9,370.4,726.9z M370.7,729.1c0.3,0.1,0.5,0.4,0.6,0.6c0.1,0.1,0.2,0.7,0.3,1.3c0.1,0.6,0.2,1.2,0.3,1.3
		c0.1,0.5,0.4,1.8,0.4,2.2c0,0.2,0.1,0.7,0.2,1.1c0.3,1.3,0.3,1.7,0.4,1.9c0.1,0.3,0.4,1.8,0.6,2.8c0.1,0.7,0.2,1.1,0,1.4
		c-0.1,0.3-0.5,0.6-0.7,0.7c-0.4,0.1-1.3,0.3-1.3,0.3c0,0-0.2-0.6-0.3-1.2c-0.1-0.6-0.4-1.7-0.5-2.4c-0.1-0.7-0.3-1.6-0.4-2
		c-0.1-0.4-0.2-0.9-0.3-1.3s-0.2-0.8-0.2-1s-0.2-0.7-0.2-1.2c-0.1-0.4-0.2-1.1-0.3-1.4c-0.1-0.3-0.2-1.1-0.3-1.7
		c-0.1-0.6-0.2-1.1-0.2-1.1c0-0.1,0.1-0.1,0.6-0.3C370,729,370.5,729,370.7,729.1L370.7,729.1z M353.8,727.7c0,0-0.3,2.3-0.6,4.5
		c0,0.3-0.1,0.6-0.1,0.6c0,0.1,0,0.2,0,0.3c0,0.1,0,0.3-0.1,0.5s-0.1,0.6-0.1,1c-0.1,0.7-0.4,3.3-0.6,4.5c-0.1,0.8-0.4,2.8-0.4,3.2
		c0,0.2-0.1,0.5-0.1,0.6s-0.1,0.5-0.1,0.7c0,0.2-0.1,0.6-0.1,0.8c-0.1,0.6-0.1,0.7,0,0.7c0,0,0.4,0.1,0.8,0.1s0.8,0.1,1,0.1
		c0.3,0,0.4,0,0.4-0.1c0,0,0-0.3,0.1-0.6c0.1-0.7,0.4-3.3,0.7-6c0.2-1.2,0.3-2.3,0.3-2.4c0-0.1,0-0.3,0.1-0.5
		c0.1-0.7,0.7-5.5,0.7-5.8c0-0.2,0.1-0.6,0.1-1c0.1-1.2,0.1-1.1,0-1.2C355.8,727.9,354.2,727.6,353.8,727.7
		C353.9,727.6,353.8,727.7,353.8,727.7L353.8,727.7z M360.7,728c-1.1,0-2,0-2.1,0.1c-0.1,0-0.1,0-0.2,0.1c0,0.1,0,1.3,0,2.7
		c0,1.4,0,2.7,0,2.9c0,1.1,0,1.8,0,3.7c0,1.2,0,3.3,0.1,4.8c0,2.8,0,3.4,0.1,3.5c0.1,0,2.1,0,2.2,0c0,0,0.1-0.5,0-3
		c0-1.6,0-4.3-0.1-5.9s0-3.8,0-4.8l0-1.9l0.2,0c0.1,0,0.9,0,1.8-0.1c1.2,0,1.7,0,1.7-0.1c0.1,0,0.1-0.1,0.1-0.9c0-0.7,0-0.9-0.1-0.9
		C364.5,728,363.4,728,360.7,728L360.7,728z"/>
</g>
</svg>
